<mxfile host="app.diagrams.net" modified="2022-11-02T09:14:51.471Z" agent="5.0 (X11)" etag="7pxfhtCkp7sMQNHU5dHb" version="20.5.1" type="github">
  <diagram id="t38oHXjiqtV8jXTQjk44" name="StrÃ¡nka-1">
    <mxGraphModel dx="1554" dy="836" grid="1" gridSize="10" guides="1" tooltips="1" connect="1" arrows="1" fold="1" page="1" pageScale="1" pageWidth="827" pageHeight="1169" math="0" shadow="0">
      <root>
        <mxCell id="0" />
        <mxCell id="1" parent="0" />
        <mxCell id="-CA8VEKCJny2kj3JDTEL-1" value="" style="shape=image;verticalLabelPosition=bottom;labelBackgroundColor=default;verticalAlign=top;aspect=fixed;imageAspect=0;image=data:image/png,iVBORw0KGgoAAAANSUhEUgAAArcAAAG4CAYAAABfI88/AAAAAXNSR0IArs4c6QAAAARnQU1BAACxjwv8YQUAAAAJcEhZcwAADsMAAA7DAcdvqGQAAJqTSURBVHhe7f0PdFzZfd8Jfjv2pNeao/ZKk+qmI/hwxwVirF71KCVjZIkIU2U6BoSM9SemAR5YEltBsdY0pOym3S2mToFJbzsEupqy096JDTGLLoxEycICFMey2msKsAWjlgO2Rg2zIrfS0oIoz/AEPs0mfKyT9hlpO8cO9v5779336r1Xf1BAAcXvh+cR9f7d/1Xv+373d+99YEcAQgghhBBCuoC/Zf4SQgghhBBy6KG4JYQQQgghXQPFLSGEEEII6RoobgkhhBBCSNdAcUsIIYQQQroGiltCCCGEENI1UNwSQgghhJCugeKWEEIIIYR0DRS3hBBCCCGka6C4JYQQQgghXUN3i9u7L+JT7z2GvmMfQHH9TXOQ7AvrRVHusuyPIXdt2xzcJW2rzzdR+e0P4zGRtsd++Sq2/sYcJoQQQsihpzVxawmX8K2Iirm0Ze5eRS40bLG99wP4yC98Er/2wlVU/jxa5GyvfRXL35OfqphbeVUdI4eX9tXnq1j6zVeFxBUyd2UZL7VJeyv+5g1UV0p48hMfQL/VXh//dAnlO3zBIoQQQvaaw2m5/V4Vr76yjC8+V8DpzLvQ/4kZfCNEoCQGRjDyzgeBt6XwxMlHzVFykHnjz17C1d/8VZx+4kUEq7R99fkoPlR4Px7Cg0j8/Ifw/oQ57CDa1zeuPY8nx34VL941xxrhjZdQ/MfHMfzLRby4VsUb5rAM76WvFJH7hx9mDwIhhBCyxzywIzCfG2b7Wg4D+VXx6VGMP59H5m36uMfDeHQgKcTDLpCW2xMFlOXn4TyunLbEjBALq+Wv4sXlCra/b469JYOpP5jFyDvMPuks0ro/VlIf08WbmD0VVJBhVFA8Noo5+TE9jbUXRtDIXe2mcukYTs/KT6JN3RBt6og6XB/TZr/xzg/iif/Lx5HuTyLx5hbKv1/EM7/5kha7b/kYrnzzabxPaHRCCCGEtJ9dWm7fj8zw+/G+geC2S2EbpOc9/vB//mPIf2YRazd+D1Onkvqa769icnwGr9J/knSM/wPe88zvYe13/zXGfz6F5JGH8NDRR/HBT17BlX/Woy/5/lW89B39kRBCCCHtpyVxu/UfXjKfgAd/yHzoBA89ipGpFzCVNvt/9jxmrrudwYTsL0c+iF/5pUfxUMh34tGfHjKf3sSr1XY6+RJCCCHEpjXL7X8yfoOP9bTXQtsKP9SDkXNZOL28y1//hufrGDdiXw38+SJ+7ZMfxrAagS+3d2HgQ59E8ferarBRGG9850UUxT0D79b39A99Ep9dE2HbA+Au2cPpZFe7OX72Krb/Zhvf+O2cvv/dn8SLTrLeqKL8pWfwqV+wBiK9+zg+8skiXtwIpmYbV8+aa8zgve1vlPDk2HE1A4AcwPSp335JxKWvxhuv4sVLn3TzKdNcXNkyJxtne/0qnv/0GXzkxLtM3DKsM3jyBSuuBnjj+q/qdIpNz1bglJFxSZCUCxgw17jlGVKfb64944b1kStVdSxI9cqHzX0/g8++Io/Ulp9EuiPIY9olQbKKyRO117XEX5u/guQ7OuFsQQghhNwftCBu38Qb/7v5+MozGFYPfrGZEeHfaGYATrtIpfFR8xEr/x7hEsdP5d/IgT/P4IvLr6KqRuBL3sT2d5Yx98QH8BEhqIKSckv6Gn/oVzEn7nF8fd/4s2U8/4mfQU4Iq/+kD8XwBpZ/7Wdw5jdX9f3f/0/4/ylRWMHzJz6A3NNfxPIr1kCk72/j1WUhWv/7+IFImyJdJz8uRPD6tk7z96pY/s0zODnxoohHCMeRD+PJ2WU3nzLNc78s4vtK4xbE7a+IvI8V8NmvvIRX73ppkQPAXnxOxtXglFp/fhVP5l/U6fyJLK48P4KeXVj/H3zfCCZMj/+rIm21dV/FN75iZlb4e1l88DH9cX95E+XrXzSfM0j+n8xHQgghhLSdFsTtG7j35+ajjRkRfkaItF9b22fXgB/6cSTfZz5/P1oE+hBK9NGfz2N26SZe+e5tbNy+jVdWr+BX+rUNuDo7g6/aQv07M8jlV7Uoe0sKv/Jvv4a1b/4J1m98DbOffBTfmC3Bc9aI4OXnUfzK+/H0//QnKr6N295gpTfxKD74z2dx/ca39bnvfhsrn5tA6i3ybBVzl79aM3uA5ov4tefu4aPP6/SszD+BtLpHhLnyr3HmH38cc/gYfkPkc/2bf4yFJzPGyi0E1//jKhqeUEsI14cGspia/2Osf1uX18Y3PZ/nN1fEi0I906YU2uMFlKWwf9sgfmMub/KXwhOyLL85K1JqeN/T+Io6JrZPpczBEH7oUaR/0ajbV76Kb9zRH13k7AvKWgsMPv4hmCtDSX1Kxzd7xhyAqKuvmjR88wmRytZ4c13U+5d0u3zwlz6KDzU6QI0QQgghTdOCuH0I7//U72HFER5CMH3l305jfMBxUKjiixP/dzMf6X4h5FqTo8+T/0Sk+/ks0j+RcP2GH3zH+/HE/82RV6v4zv/XEcpv4htfnjFWwSSe+OIinjiZROJtD+GhI0mk/9kivvIvGpA+QtSN/A+/hY8+FnTmSCL7R7+H3zibQfKIycgPPYiegSfwxGm9i/KreDVUt7+J9/3zF5D/eZ2env4J/MbUoDm3heqfvR9Tc0/jgyKfD72tB6lzv4HpYed0Bf++QUv7Q/9gGmufy2OkvwcPOWX9tkcx8k+zQgJKRBm9GmMz/5stXH1CCO0/E5/lzBa/+9v4oDWzxYOyLN/2o/jbZh8PPqjLV25GrEfx6MkRI1orWF33vwJU/2dHwA9iyG2jEbzFxOe2pQfxt500vK3JBmbYLj+Dj4yVdNuRlup/7rxcEEIIIWQvaEHcCtH19x5Fj/vQ71HiIv+5m1jIOTMXvIirK413ee+ebfxFI74IFg8lEkKPbaO6voqrLzyPovQllf6uH9fTV0n+w184FuhX8dKXjbJMZ/GLIV3byZ8dMSIvjo9h8O+HSZuHoJNTRWXlKuZ+s4gnP/FhfGTop3DmfzSXCKF6L/SF4YMY+Tm/D+dDqYyXlp8fwZBverSH8Gi/M62ayFODvrIPigQ++DdvYuuVl/Dil57H809/UpTXhzHwjwquxfrVu1EW+zdQ+Y2zmFyRZZjEeOm32jtl2zs/hOzf0x/L11ctC7fnkvDgGVH2NVPW7SF/I/J8eRQnz37RCNsR/JZrqSaEEELIXtHagLJQHkQq90k4NsNytfkBSy3zxhY2nejel2xobtSt6wV85L3HMTyWw+RzM5iTvqSvbCPxEyHWvbubeNWZT7evNzz8H4JndYwinUQyzL/0b7awfOHD6D/+AZz+5QKKv13Ci2uv4tXvJZCsK8geRiKYZDstP5aoGfT30H/5sPn0EqqvmY91ePOVEh5//7tw8hfO4MmnZ/DZLy2L8hKy7YgQveaaKKr/z0/izKx++0hffAF54/rRPnqQ/sfGcl5exqpjjb7zEr6qXBIexEeH379/FlNRny9OjuL0b2i/7Qf7n8DC1WkMcg5mQgghZM9po7gVvK0n1qdxr3jj//N7eNF8TgkRUy8Nb/6755H7v15VgjV56mlckf6o35J+pH+C61Mj5qr94k1U/s1ZfGpBLgebxMgzV3D9xp9oP+Bvfg3Tv2gu6yR3X8SnPlbES9+TQm0Cv/E//THW/0T6Bn8ba59/Ao67cxQ/ns7gfcZi+Y2VlxobeNYkPcMfNy9Wqyivawvy1tpX9QwHPRP4UKsOs80i3S8mPoAnr0kx/yAe/SezWPniBFJ1PCIIIYQQ0h7aK27vbhq/VPFYr2vGbBPfX8VvTi7rz2/5ILLD9eV15Q8c/9mPIf/Mx/A+6Y/qdBdbUza5vOVHPevn//4flTWuhu9tu3lvir+5haXfNnf+Uh7/8pferyb/d/yA3wxLzz6zVb6qB4HhUeSnnsAH5RRwjmOqEKr1Zon42/9NFtPPaF/TN1cK+MgTL7Zf4L4tjSHjS6yng9tC+Xf1CLdU7kN4NMxi3nbexDee+7hxv3gIg8Wv4SuFDBL7EjchhBBCJM2L2zffwBuhwuRNVK6U9HK5QsaM/He7Wfu/Qe68iMl/nMMXlfB6EOl/+asN+FVu4z/IQU2KB/HgD5uPCiFOVpbMZ4uHkniP42f7pd/BV2tmi3gT5f/XjJBTLbC95YniB0V6zEfF91/C6h+azx1k+47jVfuj+NuBvv2t/3m5/iwRgsRHfgtXjE+2nOc2Z7rs24cQk6fMYMDf/xq+8e9W8dV/J3cy+MWT+9Sf8EoJhf9Rt4L0xd/Db53qRD8GIYQQcn/TvLj93hKefP8ZFK+9hOpdIXS/9wa2XnkRn/3EcZw2fpVIP41xe/H871fw2ZGfUosSPPmVFiTg1i18Y+0ldytfK+HXfvk4HvuHv4qrSqg+iNSTiw2KiQR6+5y0fRGl33kV21JlfX8LlcufQs6IEz9JDH40Yz6vCkH9Scytb6m8v3Gngt/Jfxi5r8hUtECiF0nHarwwh995ZRtvipeHN0W4n30ih7mWFHN76Uk6eX8Jc3Or2JIvE3Iw3u8/g9yFVX2qLrKOXsDUSV1K1dmP41PXgpl7ED/qVGF5GS+Ksnjje1W8eL2xCcsefN8gPqbK8kV8de4l7ZIw/CEMNTn11oMPOYlYxbKIe1vUc/Ury3WnTatcd15wHkXyv/wPvjbr2zb2eao8Qggh5D6iNbeE7wmRkz+D4RM/hf73/hRO/sKv4nkzt+2D75zAwv/gn5h/Wzz0n/934vz3t/HitPGDbIbrRZz5xBl3y+WL+OKKWbDgbe/HE5/7Yyyce7RhcZn6xbyZs/RNlP/VhzHwrmNCeP8MTn8W+JcXs+pMkMRHnsZvDBvnhO8tozj2Myrv/f9wFM9c/3FM/dun6/qehvJDKYw8aRxCv7+KZ35BiPafPCaE+yhm8DSm/ok+1UkSwx81olGI0is5nJSrq73rOIafeAnpYh7O6sd1kavJPf8FjP+E3BFlnz8bWJziUaRPmxk3hLAsirLof+8H8OQrDdp4H3w/PvhR3QqWr0tXlQfxsdODNQPq6vFoekS8zmjK06J9iHoe/vStOpbmbWy6K8m9irknvPZas32lJQcWQgghhDRA8+L2be/ByCc/iPe/0xol/5YEHh34IPJyYYPffaJmuqPE8ASe+HtCYojrPlj4UMuT4Ts89BOP4v0fmcDU576G9Zeu4FcGGpkfweInPoYr/+9/jfHBpBE+DyE5+ASuLM1ixFE1QYQw++Dzem7cQWdGBZGf1Efy+j5r1an3H20uPckzX8B1O9y3JTH4z65gZWYEvT63iQ7xlgz+5R9dQf4jKSRU3T6IRP/HMPXVReTrzR0b5C0p5OemzUITVcxlP47PWuL10dwXcOWfDXqzRMiySDZeninR1lz7/VtGMNjKzAziBe3KF57w6kO1j8Zm4SCEEEJIZ3lgR2A+k93wnRmc/NDzqls6XbyJ2VOUQoQQQggh+017Z0u4j9mqrLoDypLvoLAlhBBCCOkEFLftYPtFPP+c8SR+y8eQ2a85VQkhhBBCiA+K20a5+yJ+7dPP4+rKq9iSsySobQuv/v4MHv/vfxUvmhXMUk9+DPZEEYQQQgghZP+gz22j3L2K3ImCmcc3DLka1W9h9p9z0n5CCCGEkE5Bcdsob26hfO2L+OryS/hG5VVsG0vtg0cexXve9yGM/8oI0u7oekIIIYQQ0gkobgkhhBBCSNdAn1tCCCGEENI1UNwSQgghhJCuoSm3hFe+8BQ+/y2z4+MxPP7rj4v/95hvfx5PfQ67jsuXj3c/jl//eCOhvYLPP/U19Jz/NH72Yfn588Anfh2Pv8ucPqC8/oefwWfufiAij6/j65c+g+v3zO7Dw/j0+Z/FI2Y3eP6RoU/j0z/nnK13ry6jV8xevXJW6Vx6Xe/UhBWBag/3MKzqRB/yhaPYp7ZJCCGEkIOBFLfNc3fnj557cudzr5jd/eD1P9q59NwfiZh3x59eeXLnySt/avb0/qXlRkL9053PPXlp549eN7sN0co97eXu8iVffn288jlfHYaVjbcv82LVeZ177y5/zsq3bi9R5azSaNVtbJpddJhPBsq38fokhBBCSDdyiNwS3oUzjVjzYnkFt771CIaHPDveY0PDwNLXPAvj/cS7HvdZnmVZPPKtW6YsgmX1GD4w9AheqZiSir0XeOTnHnetqWIPP/uPHsPrlW/DtqlqXse3K6/jsX/k1e0jP/cBPPatr+HrjlU4jG9/Ddd/7LFQi+zDP7a7VkIIIYSQw0sbxa3spn4KTz1lti94clF2FT/1ha+b858RokVf+/lvy65r+3o7DHmdvl8d/9xn8LVvm13ZHX3p63hFhhsSn3Q7sPdjefhhPIx7uBcnpGpw0m92haRz8yG2z/yhkHD3vo7PqG7513Fd5kmkVwu7QDn58umUlbgrIm/BuLxwDbJs3POfh5vERri3hdcf7hHlIfi2EKoPvwfvcgWqEJ3vfo9PwPqw7w3h9ddEJn/s4QZfTh5Gz8OvY0uWiypHfxmpMpDuCEPvMfsOr+Pea+YjIYQQQu5L2iRupWD7DG6lPo1f//VfF9unMfza5y3xJxCiSPqoynOORe+Vz93Ce9T1j+Oxb0lRdsVc8+t4/N1CFC7FCNR71/E1nNHxnZdWw0B8oTyG9wTCff0Pd2+1feULn8e9IS/vH/gxcfDhn8Wnla/nIxg+L9MoLZO6nK7/2OPmWrF94mEhfi3fVInIyxUnb6YslWCWCNHplJEqN1kOtuhXPsnm/Pke3PL5n8Yh0vYHr+CR1LsaFKA29e59BV8T6XgsFWZnfQTvSj2CV/7AEunSKhvzsqHL+4xlGfbzyucccR8UxYQQQgjpdtojbu99G7fuPYYPuIONdDe024UtefcHasTIY59wBvpI0Sn+WNcoIfTaPU/wBHl4GGec+ISQ/IC4/95r+urHPi6EXcTgpcc+rsWiY928gveEdm03y+t3HRX1CB57V4Q8NOX0uJ22d30Aww+/glu2MH/349bArUCXvs8dQJebk29Z3o8MfcDLjyiXM0MRafHhiW4v3kapd68eWCbFf9Tgu0d+Tpz7sev4jGNxrvSIMjEn1UuC90IkBfznX7Pq3ocoK/ki4Yh79eJAgUsIIYTcT7RJ3G4JiRPoLv+cELZx4jTAw0cewSNHIkxxbcUvgD4txSEelt4JLSPF9OMwgjnoJmAT2nX/CB7+MU+ghiLu8aScFJNeOXuzV+gu+ab9TU23/9Y/EuXRyKwRdvrr3atcJOQME6Kc64hm9ULiiNKPP4yte4+gJ1gnMj7pjvCJBn2v5YvAu1/HrW812goJIYQQcthpj7iV4ktO3+SIE2fb9QCwvef1b93C6+/evfXWEWefTt3CZ6IEriwnIXDDDImxolS9PEi0lVSJSVPGj0uLtyJcJN+7GyPspFi8tIUPyHCCVtWQtKqycvxm4+6VSGH7Bz1+q2ujhPj7SlT84p/yYVbi3vNpdt02QuAAM0IIIeT+oU3i9l14D67jSozA2E8aHlAmBNqVJXgzAihLY8D/tS5CcH7BE7OPCPEXiSwnOUeunTbZzf6tx/AeWyD6ZgqQg6deMbMJ3AtYNOWMBuajQFq/X7dnfhD5+1rovMSaV5auA7Ybg41y9bDT6vebjb1XlskfOGluFju/Aimije+sdF9wX5zU5vk0a8vwK/i63QbDypYQQgghXU2bBpTJrv7H8fCSNcJfdpk3NVR/f/DNQnDpFt5jLQDQGo/gYSHsXX9ROaDLtVjL6bNgzZYgy8nv8xu6KMW73wO4g6Jsf1UrPHXulrhW3aGQ4u/TQ/c89xARtpy+K47XA3UmN6fe/P7JtYtWxN0r8QZ2OVuE/6t6qXCu2d3iGFt2mtqw4AchhBBCDhdNrVBG9h61wlbkimKEEEIIISSONlluCSGEEEII6TwUt4QQQgghpGugWwIhhBBCCOkaaLklhBBCCCFdA8UtIYQQQgjpGihuCSGEEEJI10BxSwghhBBCugaKW0IIIYQQ0jVQ3BJCCCGEkK6B4pYQQgghhHQNFLeEEEIIIaRroLglhBBCCCFdA8UtIYQQQgjpGihuCSGEEEJI10BxSwghhBBCugaKW0IIIYQQ0jVQ3BJCCCGEkK6B4pYQQgghhHQNFLeEEEIIIaRroLglhBBCCCFdA8UtIYQQQgjpGihuCSGEEEJI1/DAjsB8boBX8PmnPi/+Nzz4drxzOIvs33/EHIjg25/HU5+7h+Hzn8bPPmyOEUIIIYQQ0mZasty+/R+cw9NPP40nPvQI/rev/BYWN8wJQgghhBBCOkhL4va/+JG34q1vfSve8dM/j4G/8wPcufO6OUMIIYQQQkjnaJ/P7X/+S1QWPoP8+afw1FNPIf/ri6j8pTln84NX8Pmnn8Lzf/jnqMyJa1/4Jv7anPrrl0t46l8s4jv/+XV8/ZI497mv4ev/Jq/Du/S7+M4PxDV/Iq55qoRvvmluevObKD31L7D4XbNPCCGEEELuW3Yhbv8af/UnX8PaX7wdP/l//q/wnYXn8TuvPozT+SKKU5/GL7z9FfzO5Rfx5+ZqhRStn/08Nnsfx7mfewcee/c7ge++gltKqP4V/pdvfgdv/+kBvNNJ1f/653jryEUU8x/EO/5iDV976S/xw+96jzj/Hbzyp1oS/9XL/wu+8/b3YuAn1S4hhBBCCLmPaUncvr70GTz1VB7PLPxveMdHsvjg372NW5Uf4OjP/QJSb/9h/PCDj+C9P/tevPUvv4vv3jM34fv40y/9Fq5jGJ/66GP4EXHkh1PH8d4fMUL1r/4Ut/7Xd2DgxDv05ZLe9+K9R0R4f+cn8ejfAf7yL/8SeDCF4z/1I/jOt25JeY0//dYdvOPvZ2DdRQghhBBC7lNaErd6QNm/QrH4NM5ZMyW85UEpWW1+2IrhvxCiV/z5j1u457gU/K13YuCn366E6utiu/Nfvxfv+VFzLoQf/OAH6u87T7wXb5cW33tSEB/Fe1NvVccJIYQQQsj9TUviVg8o+xH8sHv3Mfy3j/0IvvP7v4PKX/41/vrN1/HNr38Tf/V3/1u86++YS4S4ffTUpzD8o6/g85/9Ol7/z/roO04M4B3fLePKzTt45/t+Gg3J1L+bwcCPfwflz93EnUf/Pn6a2pYQQgghhAhaEre1/DAeGzuHD/74n2OhmEd+8nlc/8F7kf2Vn4VvBty/9Qh+9lcex2P/8Tp+63degbLD/ugABn7ydbz+V+/F8dQPq8vq81YMHH8nXr/3Bt57PCXtw4QQQgghhDS7iMNe8Nf45gt5vPh/PId/9Yu95lh95MwK+a++Fef+1Sgav4sQQgghhHQzbbLctshf/wB/ufEiyhvvQOYfNCpR/xo/+ItNvPjH38E7fiZNYUsIIYQQQlw6arl95QtP4fP//q147NQ/xeP/3dvN0TqopXy/g7e++xfwTz/6Xry9s/KcEEIIIYQcIA6AWwIhhBBCCCHtgXZPQgghhBDSNVDcEkIIIYSQroHilhBCCCGEdA0Ut4QQQgghpGuguCWEEEIIIV1D0+K2cukY+o4FtrNXsW3OK+5eRe5YDlfvmv1uYb1Ym9cYVFldqpi9aBq9rqPIvB8rotJkGew7Kp3Ntz1VB03naxtXzx5D7tqBLQ1CCCHkvqMly226eBMbt2+720JfAQO2oDgygtnbsxg5YvbvCyooBkRV6rwon/MpsxdN8DoptA6UYJIvK5eTWLudR/3c7D3b13IRLwOiDlQ6m2x7QhDPJEWbfmEECXOoESqXjqN67jZmTzVzFyGEEEL2kra4JUhxtlYEJq8ccOsjaZEMppsUfh1hHRhqIZ0VDLUgULfRc+Y28v1mlxBCCCEHgrb53CYGBpGeXRJCQRK0Ysp948IQ4sagLHHOuUsVv+XSdINfld3G4nxRCBinO9i9R3aXq4sF5vqKG6ZJh+quNtfHugDEhB1AdWXL88oNYxRzWMXkCXHM5M+1MKrzgXCsY54lUsd9ehYo54+LsMO71/X1okxUOkPyJzbb8uuEr9Pb7HmRpgvHUVLl7rEl7zHX1pRnIC015x3qlIv+7IUj616mcSC/CsyOusckKg9jozhtXSvxtSWDd8yUt7hPx2GlpaYdic3Ox3oJAxdMO1b5DeSDEEIIIR2hfQPKjvQiiSo2Q8QY1peAeceNYRHj5YIrlqQoGbg+iDXHzeHkkhJ3PsT11ZP6vLKU3V1FddhxjbiJqXQJM7aAEdfPYFqdVxZlKThXhvT1N6aFCJ8JFY2KemEbpEA6vTGtu+qVG4bIFzKYuiHuC1oPj2QwKMJZsgRi5UoBKGYD3fwJjLxwGws5x/Ujpnt9dhm4KNOor6msAAsqzWKbzwpxXPKLLSEGl0wZ6vMFfxnUO29jla8uz1FXTCqhN1bV5aDSI8pwY7RGYCpiy0WK6gKSVrsZEud1L0EGyC2q49pyuo3VqteG5Pm5y1p4pk6KvFxf1SJUIgTzzGwWE9JS20Q7qsknIYQQQg4k7RO3cfTnre7bFIaEeKvekSJCiBIhPMbPWWJQXCvFnY/0NLJ2968Qk3m3GzmBzHAG5eqW2ReI66fNeWVRlqLzjJGRSlAJUWNd7qNe2AJptVTCtuEucB3O3IojNytYmhXpGGjs7lByEz7hmzpv+cP2DwmhHXjREGLQrYP+rBBygTKod97GKl9ZXhNufUqRXRLCfNpKmxDs5wIC06V+uTjhynaTstuADxHHea8uVJ2Xq1DJl2VRXsaqKYvttWWUc0O6rJpoR8F8+hBtduOA+CMTQggh9zvtE7d3N4WcSqI31NLo7+r3LLNbqJYzSPaY3Sawu9BVN3UUyqIcla5wYsMuF3A6n8RCk76diVMTGHfcNtaXMBcQp7vG14UvXSQ6wTY2N4Dk0UDJ9CQ9sRkgulykFfsmBq9L9wyRpyjXBgfbFeJEAWVzWIribBFYXnNepuC96AgabkeEEEIIORS0TdyGd7NLpLDVo8p196/udvcIWgi1QIpDChI1ut2Ep7qp20TdsNPTWChWcbppH0tpsdZd8NK6OX6yjXY+KWxPVDFh0qxcP8yp/SWB3r4I62Y6ifB3mLhy0W4aMk8LGI0WuFLYqlkSTP6lC4E5JZGWXEjL8d1VLGMQGfNSsZftiBBCCCGdoQ3i1gzK2bC6cH0ErbOy69l8VMIGrn+kYr2ESc/sFkLQOqhdG9pDY2H3nJoVQqh5gSv9P+dWiiL/WQxFdrG3wFYVZVs8Sguo+bjfKB9Xn7+u9p3FcCbS0h1eLhUULTHbk4wWntt3qkBfrxu+cj0wnxXSFUXI2tKVZSsdbWxHHFBGCCGEHBhaErd6JL/TnWusspHd9LpbWA3qUtcvAZblNnX+JqYg58k151eGan1ufWgfzrkxJ7wCqn3tsrg1HnZCCNyFXEmNzteDjKx8BmaDcJH+n7MlVEMt3B6pM9NAzGwJNUgfWV8ZokOWW4H0P51PWvV9HMvDN+On2gotlx4kN5xZDI7pQYdmLmDtyuDNlmDvy61QTfost7JeM8PiJWo2qQeSmWN7144IIYQQ0ike2BGYzwcEz43BG4RGCCGEEEJIffZntoQm2L5WwGS5zd32hBBCCCHkvqDjlls1z61vlHoWC5xWiRBCCCGEtMABdEsghBBCCCGkNQ6cWwIhhBBCCCGtQnFLCCGEEEK6BopbQgghhBDSNVDcEkIIIYSQroHilhBCCCGEdA0Ut4QQQgghpGuguCWEEEIIIV0DxS0hhBBCCOkaKG4JIYQQQkjXQHFLCCGEEEK6BopbQgghhBDSNVDcEkIIIYSQroHilhBCCCGEdA0Ut4QQQgghpGvouLjdvpZD7tq22YunculYxLXbuHr2GIrrZjeO9SL6zl4VdzRxT1dQQfHYXudXxpHD1btmty2EhWny8jtOXbYX2c76LlXMXgh3ryJ3rChScfhRed2DMiSEEEI6RQfFrRYoA/lVs1+f1MksyvlSrai4u4rlchZD/WY/jv48Ns5VMXDsOKrnbiPfyD0doZ1CUQr5GSRvHOT8NoqVl//GHGozqfO3sXE+Zfa6GPGiN5O8iY0XRpAwh9rb7gghhJD9p0PiVj5AR4H521jImUON0D+EcZSwFLA+bq8to5wbQsNyRArc290g9Bonc3EWI0fMziGnm/LSSSoYwuwpT9YSQggh3UCHxG0K+ZbEZQpDQgzPrdi2222sXl/F+ElH2mqLcJ/ZatwYpFuCdd7tpvcdty1Xxn3hmuyKFudCu3CNtWvdXKM2u9tah+GF7+/SVl3DzjkZvur2HsUcVjF5whzTV/ry5h4P6ya3jm1fK2Dgijlr3DIq13ImHJNXO/81XfJ1yrQG+3q7LE052VZBkx4vRH9Z5a5tmuMaX14C6HKMcheIKLsQpKuMvwz89xbXzGGXQP1a9zpheXXs1IlT/rXlaZ+Lzo8kol6cMrXrNKSMT4+NmvMmjsh2RwghhBwidjrMred6d85++Z7Za4CXn9051vvszi2z69+/tfNsb+/Osy+rHYHcP7uz+JrZDd772uLOorw2LMzs4o5O1b2dxWyvtR+GjrfmnudMiCKeZ9086nNunn1xibMv3zKfA2mXiGv9eXPyqsP0zomzVrne+/JZLy0qr4FzMu1WWs/64q1Tpj5MOcTWT22eguVmtweZj2PWPTV5Mfeq6+LqKLLsavHFUXOtqVs3T8E0++vCKV9nX+cnUP9Weanr7fbgS4sf/3fn3s6tl+0wRTzWfSpeq44j22NYHRFCCCGHiMM3W0LANaGyUkK6mNUuCetLmEtPI+tahFPIFoHlNWl/2sbVyyWMz+c994UjIxgR1/rCkPRnMYVlrFoWxvFztl9iGBlMXXSuSWDkXBbY2NSWLxFP3u3+TSAznEG5umX2BeUqnL1Efyo6nv68Ze3WVuzqHRmDDtOzaFewNJvB4EBESKKMpk16EgODSMu0nzG5PyLuS6/CTV5smYYhwrphlbEsy3StK0koxnd6wuoqT51fFPUdz9a1HE5vTGPN5zsaILLs6lCTf1G3F6dFmRlq0qzr3te7kFt045Z+44B1vWrPVWyqtmZ6Iay2ljg1gfHZpUjrrdeOEkj1W7kXaV6z/IZTZ0SanXDqtUdCCCHkEHP4xK0SV46Q84u47TtV8bQvYMDpihWbHLCmH9xbqJYzSPaoSy22sbkhbssfd+/pO3Yck2VL4LUB2/XAN4hO+v/OA6fVuUCXfQ3+7u/Ts+awwCeCpCDLTTTml3qkF0nxrzfi2vgybYQEevvMx3psVVFOJ1FTRXGItJ3OJ7EQJ2wV0WUXh8p/X2902DLN4mVL15/Zxkrei02QniTSkXmUbRSYG7PCUm4Cjvj1Iwe+LcC4FtRzIVD17BHZHgkhhJBDziEUt0IuSWujFHLKqjaIjBFmiaPi8Z1bVIPFfJuyYPUgaVskXbT4Gp8P3CO2dg04k0JCjUo34a4Jce7DDHDbuDGI5RNRAleKMz3DgxOOfzCetEZqC6m0RHs+yLsjvkwbQb88NIQUfpYVW3F3U0i7GNLTWChWhbiM802tV3bRqPwHhaoStAYlVqexZpeN3OqK7TBkG5WW70BYt6MH0KmZHcQ1a8PLGIgTuFY51m2PhBBCyCHmAIpbbWGLHbSkus5LOD1WQno444kI2cU7Oxoxl6vpuh+zRNDdq7gqrpVdxb7jbUWLu+RRJ5W669lh+1rRE7MB65qfoOVZWq3NR4PKx0pRHG9wWrRGiC3TMFYxaQ34kgPAJuF06+sXDM+loYKitHI6qPyXMGPVfeVKwROSEfScmhUCLU7g1i+7SJTgLqDk5l+0z8t2mkVbRAGFuoPsGkG2UWDyQiMDuUQ6LnnXKRFuE0zzhQKgXG/i22MtDXwfCSGEkAPEobTcOkJV+nf6/UpTyN+YRtXXretZQhOuCDLnTixLvaUsp77jcmvbSHHjg+mmqYBqn2cpSxwVYkaOTFfn5PRojpVO+7Z6o9atfXXtEhC0PiohWkLV9h/eNfFlWksGU8kl99oBn8uA9leF6wKyhKF56YPqIGfRWETSchFZOlnf51Yi63Yhp90DaoV4A2UXxZERzPryL0TiOcvnVubpBX+a5dbqYhkqH31+N5DwBSUS6BWi2r1uDH7XjPQ0kitOGMcx2bdopv2Kb4+17Y4QQgg5XDwgR5WZz4QQgdNtf2jngJVTgF1Oxg+wI4QQQrqUQ2q5JWSvqDPTBCGEEEIONBS3hCicBRFGUS1OcwU0Qggh5JBCtwRCCCGEENI10HJLCCGEEEK6BopbQgghhBDSNXRI3Oq5M92pjhqcckiOYg+fb1OH1+r0SySa6DIPQ/qt1ltlbX9w0333KnKxCzwcIlReminfPaiPsPKUszPIY/Ivpw8jhBDSYTojbtdL/tWi5LyeoXN5+pGLFJTzpVqhYtb3b9vCBXU5OCKOhCNX7pqoHkffiSombufbOO9vB5Fz7lqrlW1fy0XMgbuPSLErpx3rljImhBBy6OmMuO3P+5a2TZ2Z1svpmv1I5CIF0EvM2myvLaOcG+LDlfjQS9NSdO0tGUxzPl1CCCEHiIPhcyvX6k8n1WJh8aQwlAPmVmwZrJcPHT8ZIWFMV2lFWrkcNwiftSvgIuHrcnWmh9Kb1809ijm5zKxvFSf/te7xsG5c37FA/FbaHMuc7GJ3zgddBNQ1zr2B87WWvfruG77wRB42zXEX1QXtxRduObTLwrZwh1i8Y7qyg3nzxRdIR7Bc7DJz67RuWxD4wo22zkelLcyNw3cstvxM+azL9uFcE2yPOk0yzIH8KjA7qq6Ld8nZTX3Y94p41sxhhWhPF45by/z60XUQaPuEEELIXiOnAuss93YWs707Z798z+zX4eVnd471Prtzy+zW7AdR563wX1vcOSv2n31Z78r9Z924/Wm59Zydrns7t152Pt/aebb37M7ia2ZXIuJxw1TnnTh0mN45O9xg3v3X3vvyWZV2916VFy9efd7Oux2vOf+cXTK1abFR12cXxVWGYNkF4nfC89Kv44+un/By88UZhao3L9xbz0XFocvXzve9Ly/qc8H8BNtCIJyW0ha8J3iukfJz79fnvbz4y6+2foPstj70/V57Melx7w+0J+teVQeNlB0hhBDSZjpsuZWWRHvd+wYIuCZUVkpIF7PxXc/paUw74R8ZwUQOqN4xtimxn3fjTiAznEG5umX2YX1OINUfk0afq4W2MOs4dJietdlaAcv4Ck9Y8at1/23LdG7RC7c/i6n0KnSSjMV63u52TyFbtONqBhPeOauLWeRpQeTDQZe1vcCBTm9Z3OdZ+jKYumGlSaW51pWkOaSFsICkldfUeTsO2Saq2JQWyLtXMTObxcJ5r1QSp0a8a2PaQk1bkmnHMlYjrLeaQNpkWsrePbbLTMPld9GpA30eG5vW+WbZRX2sL2FOlFfWbdciPRenkTZ7UWxdy+H0xjSX/yWEENIROiduVdf8cT2wzBIi9bEFXHuWSrW7sFVXr0H6bC5Ad/tGdZ176C5/J5zTs+awIHFqAuOOT7EUDLkJLXCkO4YQ6qfNPWobKzUoZrZQLWeQDPhyJI4mWxRD4eF5bGNzA0geDZR1TxLpclXcHUUCvX3mY4tULh3H8vBNn5+2bj9OuUk3EUPDLi5BdP7K+eNeXYj2OVl2XibCqU2bbJ/A8pqsAfnCAEydke271fJrN43Xx/adKtDX25xALRdwOp/EAoUtIYSQDtEZcSuFiRrFftsvWBokMTCoB6Apy9IgMrtYKlUK25nkTXfmhjUhnG30oCRxfHgZA5ECV1ugfTNAWBZPKXiGctpaJq13rn+wFDbpaayZe9ytIWHQg6RrxQ3QrCBRhIWnBZlGiyLX4m0TKybtMFpgvaisgK61VWK1H11mixg3p1oXizp/4/NWPZgtso2GpU0g2yekNVZa5uG0z1bLr900Xh+hL0rqhSwG0Z4XilXxwkZfW0IIIZ2hI+K2cqUARLoSaAtocFCOjyMZDKZLOD1WQno404KQcwha03TXvPP56iVPzKoHfSRBq6e0KJuPBjmN2dxKURy3piyT+UABhbi8RmLcHcYCA45EmTjiWaXZmoVi+1oBk5HKRIuvucuWgF8v+a7XU7EVrAFIuksevjpYxeQVL0UqTjhd21pAa6umRKc3Eilix6pWN70haJ2VLznmo9s2rIFa29euWmUUjaojX3nGEJU2iarXZZSuLPvKprHyaze7qA/1olCwBoyJ9F6OqS9Dz6lZ8ZIYELjK0h49QI8QQghpFx1zS/B3/+qt8UUYtLCT/oS7c0kwPq5jThoKqPY5llsh9oTwHHDSNwarq1V3PXuzJVj76volwGe5FUhfzNkSqj5RL+J/YRHJQFk0Wg4JV0Q4944C85alUfnMem4PBUxgKsZhUrlhyDmHnfBWhvwWaBHexnzSyqfukvf7S2cwlVwy56Wbh91FrX024eZ3CUPzWXWmFi38ys6sFCY8Vd7KF9ZOJzzLrSrTm5jaMO4kYhu4LmVcA4j8+ctTbKHW+pi0qfOyfYoXhdmk5U8taKj8Gke7u9SbLWEX9SHn1b0xjar1/cC5+j63Etk2nbbX+PeaEEII2T0PyFFl5jMhhBBCCCGHmg7PlkAIIYQQQkj7oLglhBBCCCFdA8UtIYQQQgjpGihuCSGEEEJI10BxSwghhBBCuoYOidsKimZqIrVFLo4QYL3o3RPYYufF3Ve268/T2wa2r+XQZ83l2g5qw3Ty8l31l1M6EUIIIeSg0xlxu76k5mPVK0DdVHOWNrSQgZwnNLB61IaclzNdu0pUM7RTKMrlWOVKZa3OXXqQ8PLyX5kjhBBCCCEHm86IWyFSvSVN9YIM5bgF/CORKypFrBLVEbbRc6a1JYUPHt2UF0IIIYTcLxwAn9sKSnlg6kz4YrxxVC6Nolqcxohau98QcF2w3QOUhdY9p5cGrVySqzatAoGVnvzXesfl9UGXA/fYegkDFxwXC92lX1y3XDCUdVgf1+EGlyO1zznXx+NLp3V9lIuBz7XAV1ZFOAsPK3x5CaCWUt171wtCCCGEkGbpmLiVglCLqiUM3Z71C9RGEMLs9EatO0JlBViwXBbK+ZJe314IsoJcetQ9N6Sul0vOrhUzQG5RHdeWym2sVgexZq6V5+cua6GXOinCvL7qiT4R7sxs1r/MqsXcmMyfDGfRLJVaAC7qcBdy9rr/Unzq5VhV+qS7xsZovJ+rCK+Aad/1DQtOKWzlksLqXrHdSGJZivx6SGF7ooDkfHe4XhBCCCGku+iYuJWiUouyISw1bQWU7ggljJ+rdUdInc/DtQH3D2EcVWy61lHrc3/Ku66GBEbOe2EnBgaRLlehHCdkmOVlrJpwtteWUc4NRYY1Pu+kJ4WhnPiTm3CFvBTK2NjUQvnuKpbLtkgWaTiXxdxKjPVWCHJPYOrrfcI7hspKCeli1kv3kRFMS5Efiyh3I2zprkAIIYSQg8gBcEtIIX9jGnAsrA0g3RHmhLALFVimy1xbhcV15rAUb7M3BrF8Qp+rO/Lf7rIXgq5sDsv0ZovA8pqUkNtYvd64S0VPMoN0ssfsBdiqijhKOO2mXWxCwLvitxF6kkibj/FsY3MDSB5tzvI6NybdQG5S2BJCCCHkwHIAxG2TSHeE2SwWzocIStVlXsWE09UuXQHMKYUUuOY4xmIErhS2l5OuW8KGEN+2aJSWXEgLqbS2YhCZZl0qwpDCND3txelsLzQxWE4J5EZIoLcPqN7xy+atarxbwvj8IpL54/S1JYQQQsiBpSPitnJJD+bSbOPqhYLVta8HPoULKOOO4Hb1B5DiLp2EaxtdX/Ist0KwemK2B8kYE+f2nSrQ1+uKSuV6YD4rjmSEpF1G6coyMJxpXHzGocJscEo0h9kZa0Ca31UjcTQpzi+55bx9rYBJKxPSiuz6I0uU77D5HEkKefFiEBS4yn+6TVOpEUIIIYTsho6I255k1ep+P47JvkVshFliAyh3BPF3bsy519uU2OrPqjlzB5zjK/Astz1JVN379MAtp3s9cWrCDPbS1lx7X26FarC7X05fJtIxm4wcSNY8CYy8oIWjE6+Tnkhyg8AF59qAy0B/Hgs5z82hgAlMWZlInJrFWtGqhwvARF2fW4njRiLS2ejiG4QQQggh+8QDOwLzmRBCCCGEkEPN4fO5JYQQQgghJAKKW0IIIYQQ0jVQ3BJCCCGEkK6B4pYQQgghhHQNFLeEEEIIIaRr6Ly4NSuK1V0xTCDnUw2f/1bPjdtIGIQQQgghpHvpuLitXLGXto0ndTLrX3jAQa4UVs5iKG5ZWCWi7cUjCCGEEEJIt9FZcStXxdrIYjxmtTAf/UMYRwlLAQutWkHMXeGMEEIIIYTcr3RQ3Opld5PnskiaI/VJYSgHzK3Y9tdtrF5fxfhJI22Nm4Nvha/1IvpOSAuxWbHLWSpWHreu9VweHDeHCoru+Zy11K1EX+Peby0/u30tp/bVsrTqvLYYq+Pm+qB7hX3OuZ4QQgghhDRHx8Tt9rWCWnbXXS62QaRrAmaXPPG3XsKk65JgBPP8bWzcltsihuTh/jw2bkwjjSwW5HGz1G9lBXpfbvO1Lg9zY0sYMucXcquYvOAsNyuFrV7CV8dzE1Mbo36f39lRLJ107tWiuoDp0LiksB24Pog1E5daFtcSy4QQQgghpDE6I27vXkUhn8SCEZlNEXBNqKyUkC5mfS4J1TuOVTSFVIx4Tp3Pe/epcKvYtKyz4/Pe+dQZIY7LVWzJHePjO3Eqoc4BCYycy/otyjlPuCtBLoS1e70vLmN5PjciQtEkTk1g3BbwhBBCCCGkITogbisonpDWVUtYNkUK2WLGCMkKlmYzGBywROYLNzF4/bju3q9n/fS5MIxizhyuy1bVc3FwtrESsLFpLLsBepJIp5PoMbt+tlAtSyuxFZZKi19oE0IIIYSQ+uy/uF1fUiLSE3PHMemIuwa74hMDg0hLy6YMKz2IzBFzQiEFrnEHwGh0mFLYnqhiwrgCSBeGcXOqLkqsTrtuBO72gmd9bZweJNMZTN0IhHV7FiO+fBFCCCGEkHrsv7iV/q8+EXcTU2npAiA+KzcFPVArfD5bw5EMBtMlnB4rIT2csQRlBUVLzPYkM+ZTCNL6altTjehuCBk/CijEpbFhEsgMw/LnDaAGvXGAGSGEEEJII3RsQNnukIJQClfbJUHSg+TGqLEIH9ODtBy/3iMjmDADu5Q1tz+LKSFQB8y1fStCYOsrG0BahxeRzBv3B7O1uohE4tQsFvqstMitQSs2IYQQQgjxeGBHYD4TQgghhBByqDmklltCCCGEEEJqobglhBBCCCFdA8UtIYQQQgjpGihuCSGEEEJI10BxSwghhBBCuoYOiVs9l609jVZTU1/JuV/PRswLq6igeCyHqwdxhS+1Klqr89bqcmt1yrE9pW6dHEwqlwJzKsv6MfmQ57yyjmpTpi139dRtMu973+62r+U4BR4hhJBd0yFxK5ecDazK5cxHS0gnOTKC2YtAQYi5meRN5PvN8Qi2rxVQPdfN7VeK9xkkxXe1tiw69xJJIUwIISSKDrolJNHL5WXJQUQKXPHCNXuq3mLK29g6Ol1XAB92Mhe5FDQhhJDDQ2fE7d1NVM3H9uB3c8hd2zTHPZSlx5z3LWdrutMr7nljiVLL3prrgxYi+1xdy5Xu0nWuL66Zwy5BF40mLGHKxcHuVvfH5V+2N8TK5nMlcM7bYQTTEkhrpOXMhLWu0+dPiw7D38Wtj4UvuRzIU4zrQ42LQUiefe1AhFXTUhquWxn2cZweM6vUWelyrIoyPTocnXc77mBeI9tnEFNnV03YuhyDbSiufYvNrrc656VleuBKSGpU2xvFHFYxeULcE8y/E5bYauvEO2ffV4v/WiccWa4D+VVgVq9GqMogxN3HqQdCCCH3Fx203JqlcOUW+4Crh3ywH8fy8E3XxWGiWhAPXQ/5kFNL8Zrza8UqTtsPvXIBM5g256Af1itDOrwb00jPzngiR4qBMWDBhLUxn8Tkhaj0y4fzKDBvrr19E8nrBZTNWSftk32L5rwJ70SMuHGQD/MTBSRF2NrCqOOqFr1yUPlsqmylUFnCUGhaguV8E1MbozF+mCKsy8C0c21a1Lcqc7108tyKlcO7q1guZzERZildX7LKbxHjoq5KLfp+BtvBxrkqJmfNSUkzdVsvXUJ4LZ3U5xfMss8F08Y25rMo50tuHddtn0FEXFUTtrIai/Kr2vUiynrGFpRW+9btOVBv9c6HoazbIt8w7kUvjIiaNXnJJ70yFNfIZard8Bquz+B3R4ZTUN/D1HlZRhkgp7833W45J4QQ0hydEbem21c/tMTDv6+AgVYFbogwSp2XD12HbaxeX8X4Of3wlSROTWB8dskTkOlpTJv7EwODSMsH9hnjQ3kkg8G0EA9bereyUkK6mIXrYdmfxRSWsRpm4RMP8jkRdtZ9+CYwclGIB7PnpH3B9teU4QlxshQrLsSD3whb98Fu4nLyIVH5LEekLRQpVPL+vDlpqSlnkZdzWb9I9SHCuuiUub4WG5uqjnX5ey8M22vLKOeGvHht+vOWeElhKAdU77TSUmrbgQx7QYTn0FTd1kuXEF7O+dRJkXdYZdc/JNpnFZsq3AbaZxBfmxKI71Peqhf58lB2GqzEbhfi2olgWuudbxiTl3mrDYlPWSFE3XbSaH3WfHdkOMDyWivpIoQQcj/RQcuthxKjTYkwQV+vFgNbVZTTSfSog2HIwWvA3JjXvdmnulMdcRHgSC+Skf7A29jcAMp50xWttuOYLHvi12b7TtVLZxihaU+gty9eXMyNaQutJxKi4upB0hLmzaPTopBpta3tchsruYK1OaSoEWJZCRUpiOC9TNTg73I/bVtam0IPYkxGNpTm6rapdPUkkY5so022zwg8FwjTZd8Rwss4cTRptZPGyk2157J46TXXOfnyiXZCCCEkhAMhbjWNDzBTDz4HKRzKVfFYtfD59EqBF5iZQW2tDJLRYm/c7Sr1NltoOvgf6gYlEg1haTckj0ZKYhG/7uq1fRlD41LECbp6aMGnUAJt2uvSdzbTHd0s0ppZvr6KbWkRxiAyES8T0hVCzUZg4rMtrc0RJvSt/DVVt+1O1+7apxS2cmYH517VZd8RYl6m1ItX4+Wm2rNxO/BtnFWFEEJIHTojbtev+gbqVC6NYs7tltaWneCAGw/T9XnSPOSUpdXvY1i5Yvu1ym5axPjFNocUZXNjDfjESpR4tX0KRd4ul8xngXJ5cHxRDetFnJ7NYihELHukkDe+jG45ya5uEVfBKgc5GGjSFY5aeHjduhUUpeXVxyomrcFD+n7TNSzTCn/4u8J0+RcuFJC0XQV8BC2BFSzFWEh7khktmM2+alfmsyNe5y5b7WC9hEmvoTRRt82lK57dtk8t0L2XIf396AzGn9pXhrqd6e9rE+Um23Mjvr8O5nfAdee5exUF24It/anjBuoRQgjpGjpkua3qQVtO1yQWG7DIaNEru4rloCbbb88Rek54Sydtn1vxyD01q/16zXm1tTqKuj+vB/zYYUX5C0vf4hvTqLpdzgXgnOVzK8TAyAt6YJYblhrQZPssRiHyLcKGzLeKv7Yc1CAl17Kq/X3V9er8EobmpS+oTQZTySXvfjkwyL7/BX/4cmtYfNSgRV25HCfktZ+l11aWgBgLaeLUtBDMXj0H24EciORrBytDfsthw3XbXLrqsbv2aXyfrTZW7dsvy61VDqacZF78ZagHhenvazPlptu3992Rmzd7hfZLtmZLkNeL9uyWwwVgomMWbEIIIZ3kgR2B+Uzua+TodDlZ//7NaapG1lcn2NVMCCGEkLZxgHxuyX2F6jaOG0hGCCGEENI8FLdknzHuJWoqM658RQghhJD2QrcEQgghhBDSNdBySwghhBBCugaKW0IIIYQQ0jV0VNzK0fLuND8NLr9rr8SkN3vuSu3PqaYGkvNayjDvXkXOmkJo3znw82vGzSssZ1BoT9mpemt1+rV24LQHsxuOLAuTX3m9nV7VjnQ9yrxEz8McghuWFT4hhBBC9oSOiVspENQ8rM7KQ02sdJUu2qsxyTk1HfGo541NXhZC6nJSz/Eq55ptaTWyNiAFkUxHQ/PWdobKJb1i1OypRku/NeQcswd/yi/ZfqaBC6b92OlVcxYnMSNeqORqYE2VV38eGyfl/MGyrDmIjhBCCNlLOjOgTIq+E1VMtCD6nKVGPXEhrWEF4OIBFA13t7F9JNGwaN9/RPruivRFltv+z327Z0jrqfPCYw4RQgghpPvoiOV2e20ZKGbbZM2US3qaj043+jXpCuB0g9td647bgv7ruDbYq2wpV4lLV8155z4Zhne9270d1tXtHhNxXDjuLb1rjldcVwyr+9sJN9htb5+r4x7gc9cIpM+LU2x2HOslDPiWffWXS+7apjnuEFEOAl1uFV867K5753x9/HH4uv995SE2K7za8J26NrsOdhhW+jURcQfjlVujZSzwud/YLioq3IPsskIIIYQcPjoibreqq0ge3fIJiVaXcd2+NoO59CAyrmVxFZPVIe22ENENPjcmLb3GHUIt8RkQjrNCfKvzxmK5vqSWENWuEIsYLxe0aJXr35eXsereKwTV5RLGz0VYB8V9M5hW4aw5y5CumLSKdKRnZ7x0SOGjluI18c4nMekTohbi2tMb066Lx9q5XnNCYMWp44har1+KQb20sbpWbBPVAubMWUVUOTiIsJdOmvPzWZTzhVhBHkbl0iiqrtvJTUwcNSdUeVQxdcOJXy9b3JTvq0jvgFPeYlNL3rpCVApbvVSsPi+XGjbpl24F5h6Vb7lM8UWrjmPKWApb2/1GudE0JPIJIYQQ0god87mdG1vCkCMYwgRmDOX8cVcUK+Hg62oWwqPOqlfj9uIBR0YwkVvF8polknIT/m54IW702viSFIZyQPWOvF5+tu69Kz6Xsxhyrw2Qnsa0cadIDAwibaf1SAaD6VVUt/RuZaWEtG3d7s9iCraQDlCuwtyKRH/KKw8rTp1XJ+0BTNonLF/S1Hkp5Cwiy8GQW/TOy/Ra+WmGsntTAql+nR5dHtNWvSQwck4I6Our4YI/DFEWth9t6owUokvaciqE+5w4n7XylxUvIL52IdDi206HILKMt7Eq0me/7CROTWDciVOJ5oPrj00IIYQcRjombn3CLUxgxmAPKGtmIFoUPcmM+RSFv7v+9Kw5LJACCUZgNeVucaQXSfGv1xZJLtvY3PCLeDkYabIcIRalSJoHTqvrGn9J8LFVRTmdRI/ZDSe6HNqFHHi2gFEdh+s2oMsjeTRQ0z1JpC1R3zSqDjTbd6rKAjtg8ia3gfyqJbTFNddyOI3FJgaTaZeZuTEvzL5jo5hDFZut1BEhhBBC6tIRcVtfTO4v0k0iGt1dL2cUcAT1Qs6ckkiLq7KoSisdMDiwW6ktSaC3T1qYvTidzbOcBnC6zm+I1JxoQeCGCcW7m0KGOdQphzaiZlYQ4a8NL2NACVxdHqEW57qCPAYrf4mjQubmFt28uZtj6b17FYV8EgtNzfjQg2Q6Y7lSOBtnTCCEEEL2io6IW9klD9sfUwiHmVkhEpUw1NbBpnwpm2TusuW7Kv1VZ/3d8X6k9S2DpKugKljyWSwTyAwDy1dKQuLavr+7I3Uyi7mxxgYbbV8remVpWSObQt1XwoxV7pUrBbhj9eqWQ+NEzxMr6v6SVzdKcBpkefh9eMW1FwrAcEZZ7tW1Tne/YPtaAZNe4jU+H2Fzv2Npl/7Tkf7IFRRPFJCcb9aFQLeNOF9pDigjhBBC2ktn3BLUnKHSwmi6ak8IWbiP002NC8FRcLqJ1SClONGifS/V4C91zxIQsFgqsT5bQjJqIFkr9OfNHL5OvGKrGd2vSRy10ycHRbVSlink1SAqzxVi6aTtc1u/HBpDuhg4LzJBEuiF5RogB9Q5bifK9SJpxa8Hv7kuAuL8Qq7kllcBE5hK61Mu6WkkV7z7J/tsFwORf+X77ZyXm7aASz9bObDO717QmChNnJrVA9fc+8TGAWWEEELIntGZeW47hte1Htm9T/YWOcfxlV7MNtW9TwghhBDSGB0bUEbuU6TVnsKWEEIIIXsExS0hhBBCCOka7jO3BEIIIYQQ0s3QcksIIYQQQroGiltCCCGEENI1dEDc6nlsvSmVvK2RuW3lHKk190ZMkaVQc4m2uGrXvqHLRM2xKtMr8vPda7n4fO0xcjWuAzNllSmTbbuc4pAzMhz4OieEEELIXnAwfG6lGDlRxUQD6+xLcTuTtOY3Fchjp2flSlDB+V0rKJ7dRLYNS/TuPXqasklMYy0kvVJsDlQnvBWz9pj9jq8uUuCOldSqbZzGjRBCCCFRHAi3BLkSlrtSVAvI5VrX5AIDVwKWxnVg6FAIW0kCIy/cxsahSe8+Y5YXprAlhBBCSBydF7dq6d245W8bQ64SlvYtv5pD39iou2KV15XtdG1XUHTcGlT3u+0uEezSts8514fgdp9bBLrU3TB8K1zJtIg4r4lrnfCtsKRleiC/CsyOqvM13fKqGz6wYlbgmCoPN+4QFxAZn3u+CBGbR0j4sW4LJu0VO07ftVbZyy1YZkF8afPyH8yTVy6mPOmWQAghhNx3dFzc7tZq63KkF0lUsakEzTZWq4NYu31bWfvWihnMXfYLqLmxJQyp84sYV6JRpOOivn4ht2pZgbW7gFzqVZ7buH0TUxujtQJT0j+E8fIyVl1RJe69XMK4XJb37iqqdhjpEmZ8AlPEWR3S5wOuANoynQFyi+p8jfXySAaDIrwlK012uSoXg3wSCypuuelldt08SPEol7p1zt9IYlmK6d1QLmAG0ya8afHiYZXZ+hIw76VlXFxbCitPSU3apkU9S+rXMSGEEELuPzosbitYaoPVtpYERs573fvKqluuYsvsS8bnHf/eFIZy4k9uwvXXTZ3MAhubWigJUbpcttMowj6XxdxKmNVShiWuXzMSy9w7JMXokRHkrTAywxmUq3aKMpg606rE1+F5aZLlKgTvgIxPiMDrq1Z+JSlkpRg011dWSkjbLxgirdNSTO+G9DSmnfyK8CZEGVfvmHLpz1sCXZe/e86HeTmw0y7CGlH31q9jQgghhNx/dFbcri9hLjdkia5dcHcTVSTR6wwos7uyTxRQNofD6ElmkE72mL0AW1Vxb8l1b1DbWMkTvwFSZ6YBISblue21ZZ9V2p7pQbkZtJHEqQmMO24Zqlwdsb6FajmDYPYSR5MmD9vY3ACSRx2ZuB/4XTROz5rDNYSn3aWJOiaEEELI/UFHxa20GI6fbIu09bs3SNFzOel2WatucXVVC/QkkU5Pe2E5W9TAL+kiAOmaIC2mMNZTLWzlLA/O/crNoK1IC6h2TfCXaw+S6VX4jMQOfb0iDwn09tVaTreq7RXfHtrNo3rOK8sFaTkPJSbt7axjQgghhHQNHRS3uuu81iqnrXqNzHmr0def3vC6wbfvVI1w00gLastWPSVWCyg0nB7pIgAsXykJiTuIjLKeBq2j2lWg3Uh3irmVonL1UK4QCuOyMBYYwCan1TICWFquy/mSd14N8jOfJcqf2fLpFecLLVueg9ZY2Q7MxxpC0i7ivirS0XgdN9ueCCGEEHKY6Zy4lW4EaUf8NUc5f9zrjj5mrICWJVV30euZBeRWqCZ3YdWTU3TpAVhenCEzFlhI/0/MlpCUA8n0Ee2nO+bcX0C1rznLrZ2nyLjlgDYRbzUwQC9xahZrxarlWjGqBnQ5fq815y8AEz7Lcgr5eSv9NeebQfr7ApMnTFjHloBIy21I2k4sS4Num+uYEEIIId3CwVjEgZB2Iqcua3BREEIIIYR0Fx2eLYGQ9qNcFNo1UJEQQgghhwqKW9I1OIs6qDl9D8qywYQQQgjZV+iWQAghhBBCugZabgkhhBBCSNdAcUsIIYQQQrqGjolbxz9Sb/YcrPHoVb5yuHrXHHCpoBh6fB+QCwqcvQq52pecUzVumrBOospcpbM51H2Xomso8rxaQcyu24NdPoQQQgg5/HRG3ArRowb9mNWl1DymTYiudBqYvNKoHN4H+vPYOFfFgJlz15k/9qAh54yNXFmt3cjpuNQKYpyOixBCCCH7R0fErVpdypqqSS56kC5XEbbKaijDg2oC/wNlAZQCVwj1gyps958MpvdLSBNCCCGEGDoibpWYnZ1xXQian5c0Y1bMinNn0F3goa4Pxo2g4rpGGHcG1Y1urg90s/vdKLyu9eBxtbn3BtJgh9lCGnzn6rhgaPcNszlWcRNntIU8kN7AtXaYscvZynhOHMeAujYsnf546KZACCGEkHbRGbeEIyOYvTGIZbME60B1AhvNzkvan8dCroTTYb6ekrurqA7fVNbUjds3MZUuYcYWZOUCZjBt3CLMcrArQ/r6G9M+8S3F2Gp1EGsqLHl9BnOXtfBTXf3muLoPWTPHqhRwx7Fsp2EjYG1uJg1SMI7BdeXYmE9i8kKEUBXXnt6Y9tJ7rteciCOY3ttYGDanJLOjWDrpxJ1FOV8IF9cNpHNurABcNOdFPqtjHfKVJoQQQkjX0TGf274LwLQjgE4uCZHb+KAyh9T5RYz7RKiFEND5U06neAKZ4QzKVcvxIT2NaXNeWZKRwdQZI7CPZDCYFuLYvTyBkfNeF3u4G4UQhxcKSM4bH1MhrpfLWUxYaRg5l8XcipXLJtJQWSkhXcx61u3+LKawjNUoUWilL9Gfqu8esF7CpBDaTnokqVOWW0Fu0XO5kHH7ysejkXSOz89i5IjZEfU0kRNltRZjCSaEEEIIaZAOiFshAi+XMH7OEk7GCrvUdPd0Cllp8YywYNrd6AP5VXM0hCO9SIp/vY7gCkMKchNW34kCyuawQ+WStnq6AnCrKq4p4bRzj9zGSsDGZmha49Owjc0NoVfzx72wjh3HZDlcYCr/33mYuBuziio/6L7e+iI4libTaehJZswnQgghhJDd0RnLbRtJnJrGFAooXNs0RzRS2M4kvS526UrQMlLYqpH/Xld62pxSGDcA2+opFBvSac81wN1aGmSVQG+ftHgGwhJb5AA2M8BtQ7l/1Be4iaPJaOHdMC2kU7BVjXnxIIQQQghpgg6IW+0i4PisKqQ4nM1iSAkgPdgodsCSjwRGLk4D+QLmzBHHgpg86sjIbaxeb11ABa2aagCc+aymvBqrYupiQLRKtwIluncnFx1SJ+sNoPPYvlb0xKyyCDdA/xDGy/70Vq5F+PTG0Eg6w+peu280W/eEEEIIIX46YrmVg7DWhpfNaHqxSXF4YxfzoR4ZwbTPMmv8W8ecrvECqn2tW24TpybU1GNOV3uhmjSWW+1nW8aqHgzm5EfNMiDS8MIikr4u+l3MDNCf1/MBW2FFzXyQOGoGp6nrRgHbxzWSFPK3/ek9XW3BTaGBdI4PAwXn3G7rnhBCCCHE4oEdgflMCCGEEELIoebQ+9wSQgghhBDiQHFLCCGEEEK6BopbQgghhBDSNVDcEkIIIYSQroHilhBCCCGEdA0Ut4QQQgghpGvomLjdvpaLnAe1LnLFsIbu0YsCtDy3rI8KiiKtTlgq/ZcaWVIhiD+cTiJXcdvvBRPcOOXiF8caW5SibbjtJtAu5PH9Souv7frbglouuqU2tQdElVUUqj4bW+q5M8iybix9qh6a/U1qmXb+RjnoduX8vrbzO77fbbSp39mGnwuEkG6nI+JW/mANXB90l6ZVCzoclId6JHKRg/hlZBujXeEcTlLnb2Oiehx9J6qYuL3PizfIJYnPVTFw7Diq50wdSFGmllaWaWlcALUHf1uQZbNx/oAsZxFWVnEcGcHs7UYWCzngCIGklu1uaZnsg4AUy6OoFp2lx/XCLO0Sz+1to/v9fdsjOvGiTgiJpQPiVi+FO37Oe3joFcBmDv+PHGkI9YDcb2HrIEWb7+Uig+lDK2T2mJqy6n4qGMKsWgr6sLKFajmDwQEnDykM5YDqHdozCSH3DwfE57YHyfQqqltmt0l8Lg5ii7RSqDdsp5vO6Q60uvCU9Vgf12HZVoV63YeNdgXWhuNPf4QFIMw64Dtmp1tutRYRXzxnr2LTHNcE74+yRASv05uTn3p1obo13fMmDtOdWLHvDVjy21FGKoxLV036ZfmIvFw4jpJMo7puFHPOUsr1ujdlmt30mM29x98WosPytwWdPjv1UW3Kua/RtisJ1Fu9npJA/urXr0xLjBUuEF7974ed9ybzEpF2xZasZ+ec3VZ0mKfHnGW27XMmb+vevTr9dhqDbdI+F5dfh7j8+sOKbP8KKWZFG77iXFHB0qwtdv04bc77XlrfFROfnXZ/G60tF1/aQr6P7v3Nft8E/rglTlsxu4YtK+312oZ7vs5vR2T7lcdPyCXYS3rJ8WB8hJDOIJff3W/uffnszrHs4s49s7/z8rM7x3p7d5592ezXQ17v3n9vZ/E5Lyx/2OJc1oT72uLOWV8c+tyx3md3bqn9WzvPivPHes/uLL6mDuzcek7sP6fP+sKSezIe95y+1wtb7nvh+AkJxyoLf7g2/vskMn1nvyzvNHmx71Nl6uStNh6nzPX9AlE+zzqfTXjuuRj86RX3RdZFsDzl+UWdvpC02HXVnjIy9/nqJXh9XL3FEbhP5McfphVHsO1a8fvzFdem9H3Ntl2vPmvLyUeg7cj6WFTXivsi6zdQBgFuPWeFFwzfRzBvJi+BMovMS2TaTRkFwnHLKLb9B+417dOLJ/z68LoLYtIRmV8dlhe2uCPwfQhDhaHSGF0nEv2d8NLq3OfGFyjPsDYaV6Zn7boQ1N7fQPrM9f57JTo+f91baTf15D9vx2fXWyAsgSwLJ6zY9huST0JIZ+mI5TZxahYLfQUMOG/CK0lMpc3Jpklg5Lzl4jAwiHS5Cr8RuIKieLtOztd2sY7PO93juvsOuQnXbzB1MgtsbNa1KGB9CXPpaWTdsFPIFoHltbq2iAgXjSW/BUGRQGY4g7kV54xlkbm7iuVyFgu2L1x/VpRpCUvKqlEbj+xyXpD5dTgygrzbHavjKtczpd+9ikI+acUbUxfi2plZfxoTp0ZM2QtE+U078Yu0TLhdqW0qIwerfttF5ZL0cZz2whVl67WzFruFG2hTDbdd0z4mrPodOZe1yslmG1cvl6ywBaI+RlQ6GvmuhZM6b4XXP4RxVLEZZeUV2PGnzkxb7SguL3Fpl2QwddFJv77PLaO67d+694hoU+L3Kl3MmngC17fwexCZXxOW+90QqPZfXsZqaPlpa+bSST2eYeP2NHChjuU4t+i2V9VuYJVv3bqKKdNOEPk7Ir6nKyVRZ9b31KS3LH5ftk0dRv12NNt+CSGdpWNuCdrv0mzne5WfWLLHnGyEvl7zgyqwu4xUF5GfuTE9wKKe72BPMoN0U4nQbN+pAmVLrIttIL9aXxyKx1dVJHZuzLuvT3XVhf9w+kSdfOg5YmarinI6CX/KE+jtc37YtR9evazZLgMy/fHIF4ZlDN6wfvQlUXURmsZGaFMZ7RGyq/Q0FgN+mlpgOOk9PWsON0GzbSq27cqyd7pNnW2sFCFC6rSVOt+1SFQXrxO/rL8Wic1LY+08isbbv/5uJY/ade7R+u9BLSos+7dOEePGtV7CJGxhLQTcRSFwlYBrgJ4k0i19Tw8629jcCKkzmV/zIhH729Gu9ksI2RcOhs+tsk4MItOgCFE/+A7yYatGuxuhfGMaQSPw+LweMVzf7601EkeTyvrhinVnqzuqWD6kMpi6EbgvctS5tNBpa6y0QoyfNOFbP9BB9I952MNQ/9g7yAe7GiVu0rBWzJgz4dRYKyVxdRGTxnjaVEZ7QY3lWiKFrZ5hwEmrz0LeIK23qRCUYJn26sXZQgfSxQmn+t+1UKQwULNjOHEvYtycaprYvMSkvQ7Ntv842ll3KqzQl5DWRfz9if2yH8AV8xG/He1sv4SQfeEAiNsKimPih8TtdtZWr2gharqpzQ9P0LKxvbYcYk2SUy7tocCV3VSzozUDG+oju8KAyQuNz80ouw3nVopYms1iyLHOqG7SEk7bgxmEEDntXqN/2OcuW/FIC49bUEGrhi7jKJS1csPfVSqJrYuQNG5fu6qtJLG0qYxaQrfF8Hp1XF0Clusa66Hs3jQfm6HlNhWCLHsUUGio7Zvu2TH/wKCrIh2NfddCCFrt5cus+dg0sXmJTns8zbX/urSz7mRYZX9+t68VMClKIdQYYK5XgyQVog1fKACiXPzf1n3gSC+ScFyjBOplsPVyVULfckdS5dBw14H+XSjnC9ZgvdqyCf3taLb9SjEcN7iSELLndEbc2l2bx0aBEF/YWrTQ6Dt2HMvDnouB7kpyRjgfQ6GajLAmCYF7YxoQAreRkbnNocOu+rrOG/txq/E/llvciFv14Cyh6vr7SRIYeeEmpja8cugbAxas6bakG4jfz3nIsihq3zOv67+Aal+E5cp5QAW6XeVLQ3xd1KZx4Lq0E9anPWXUCNo30hu9LYVquECWlmv5gPO7S0hRZYWhji0BLVhud9OmapFlr1/uvLCiRLsu77Vi1ev6P7GsKqrx71oA6f8tBKnX9rALy1d8XqLSHk8T7b8h2ll33ou5E5aaIzxy+jp9Pdy4j2OyL+g2s1+ItMxb5XoBmPBZxIPftzqocQKeS0oBE82N1ZBT280nre+mfpb4yibst6Ne+1W+vSZdnC2BkAPBA3JUmflM9gU5fc4Mkje6YML7bke8hOXuZPdNGDhd44dynlVprerEwhyEEEJIgIPhc3s/0aR/Mekg/fl9FJrx85EedJSLQm6IwpYQQkjHobjdLxxXjLGqNXUOIdKSL7s7QwboHQLUxPoi/QM1A+sIIYSQzkC3BEIIIYQQ0jXQcksIIYQQQroGiltCCCGEENI17IO4lT6F1ryTDr7pwELOR2CvItTsve1B5qfxaX2UT+JeTw+jyrL5qYZU2iKm4JHlrOYEVnM21i/juLDuW/agXkKR8cRc33gbjJvX97ChfZlD8xLVptXxbsk/IYTcv+ypuFUP1bClCuVDRA6sMqtOqXkpm3iYp4v2SkJyTsv9FrgHCfEQV6tGNTm1mBBEA9WJiFWqoObFnageR1+D0zvJ+UWjwro/2Zt6IY0gRbqcbq+R+bMd5IT+ehWqxu8hhBByENkzcSuFrZpsPGSJTj1tkLdut5ocvryM1RYmOU+cmsZUuorNliZI7wLWgaEWhNB2T7bucqBS4G5w3tLW2MN6IfXJXGzypeLuFnovsq0TQkg3sGfiNtqS518+VyPX9F7F8lorndpyFSnzUaCtxZ7bQuRyu2FduebYHztd8hbKHSKka9ftvncJd1uw3Sn81zsrrzmbdW9MGuUxldexUXfFHq871aRhXXez6nBt63YFpRP2MpS1+N0/nHuDabXCrElr4NrYbnHdhexeG8yziw6zuG5fHyhrmQ4rLLusne55L286/Xabqa1LLywvXYHjavPSsf/1otmy234T5R1s68G683XTx5SvH6euYsISxH9fI9Jp2lolIr9yWdaBK3b+/eEU18xhBxneCVFfZuUqLw0h7U3FY+cp0P4E/jz564gQQsg+IKcC21NeW9w52/vszi2zu7Nzb2cx27vz7Mtm13Drud6ds1++Z/aiCV5378tnd45lF0Wo5rMvrls7z/bWxqWR587uLL5mdu10vfysG6bGvtZ/X226/ed1mqw0yLDd8zrOY895KdbnnTzEpFF+fs5Lo10O+j4RrrsfjCcYrh+ZJztN9768qNMj6vJZN686TDfvvjILnDP74fUgEPd653Taw681+bDqWKXVqqtbz1n17ytLmQ9/Xah7xb4vD3b7aTBd/jYg0rjf9aLSbaVBfee8tKo0+OKw82HH6ZSvlQYVlrcfV75+6oel68O+35+2YLneetl83lV+w9pQVJ6C1+qw7DzV1old38G0EEII2Q8O5WwJ5dB11o1FeN7uWpRrl2cwtxJmOwlYi++Kz+UshqS/nVlLvORYmXa7qlhu0fPjk2GnV1HdEp9NnL7J79X5EpZU3DFpFDkeOe9ZxhMDg0iXq5DBajLWYhF67XxsbIpSqsPdq5iZ9acpcWpEl+mREeTdFbsSyAxnUFYZCWDSOWFdq9buD60HQX/e8nOUeQaqd6JTatdx6sy0L9+p81b9y3XiEXBZseoidVKUCax0Bq9vJF3rRZzemMa0ndf9rhdJ2kqDWus+ogxVW55G1sqXXN/f7jUZn7e69FVYXhusW74BosNq7Pvqta8EUv1OqQpazq8o84t+V6l6efLSqNsALJcq1Ybc+jN5OmfVv3S5ml2i9ZYQQvaRAyVuk0eth1cM9oAyz/VBuidkkOxROy6Jo8lI8SCFEcTDSD1q15aBYtY8xLRwcx6ylZWS74HVNraqKKeT8Cc5gd4+70EdnUaB3UV8ogDLO6N1QtPkYXeLD+RXzdEAMgyU3G55tY2VYkScv+v69Kw53ApmxLsOK2Qwo01PEumYvNZNlxoYCSwE3W86UC+Nsn2nKhRjAQNO+sQm6zH0JcXQk8yYT4JmyjcEL6z631fp872AUR1XpKtKPCq/fb3x390m8iTTnw4m2kW7SM2NOWE54d3HYwIIIaQDdEDc+sWbRq+rH/nMaIgeJB2LaJCoh9uRDAYhB7JJiwt86/ori5uyuMi0OdbSNiPFlc+q5+EK/ag0SgGlRuMbkR8ycK8lYtIkhe1M0p6pwhI9Nko0Tntpc7YIH+yrZ4+jes67bkFax1pBihQ1u4MT1iLGzanmqZcucf5CAUmf5VHQgXppBiUec4tuntwtZhDbVtW8xLShfN2wGvy+6kGNoq0NL2OgBYEb+nKrXr4MbW0zMk8ZdxYYb2tycBshhJBd0RHLrbJG5r2BM9vXZqxuf20tix6oEoWxto75B+gUx0qBwWs28h5g+UpJyMeA24Hq6ixh5uwMqra1NIC05JSNZVVSudSENUsK13QJp+3BP7Kb2yemw9MYtEipGSjM510Rkqbta1dFSW5jc8O2rusu2FCUIC+g0FAdBi148mXCfGyWoHVTdkmbj80Tn67KpeOY7LPcTQz7Xy9NIrvdZ0drBnbZzF22RKRpj8p1o4XyjQyr7vdV/A5c8u5VIrUV1EuB5WIkw71cMp8FbW0z+rs6eSFchKteD/u7TgghZE/ojFuCEI6z80lMmtHJnt/s7pAzNOh5b70uQczHz1spLbSYLSEZ4nYg/enKQpnYFt0gaioyIeScbt6lk81YfhIYeeEmpjZM16vcZDd3YPqtsDRqXz7vvkJVPMTNud1Rm6aB69Impf1DvS7XAqp9EZZbFcYikpZvtNzCBZX2+XTaQt+xJaBVy63xlXa73FewCytcTLqUSBN/rfKXm8zf/tdLs6SQvzGNqq/r3D/if1wItIJzTs1HbdpjC+UbGZYg/vuaQK8dV5j7RyPI3xpffgvAOcua3tY2o/O00GeFJzcKWkII2VcekKPKzGcSxOliboPw7nbk9Edq8QHO0UoUnltH3MslIYQQ0m4O5WwJ+4PpIt2LgWRdhxklHun+QQghhBCyP1DchqBnBBhFtXiTVqdYtH9037Fw/1NCCCGEkP2GbgmEEEIIIaRroOWWEEIIIYR0DRS3hBBCCCGka9gHcVtB8Zg9l6UfOcq++TltZZjWVDtiqwlDznQQO+m7DMM/BVIsahUjnQ/pk9t8mgkhhBBCyF6zp+JWCtfo5Sy1QI1cwjUKJTL1YC9vBaCbGLx+vOUlOhtCzZeZxIxIs1yla9ZZ154QQgghhBwY9kzcqnlP5eIMocuPSmGrJ2xvbqnVbbXkKYSw9YtLM8E97JWI9gApcIWYprAlhBBCCDmY7Jm4lSv1bEQufpBCXojEpqeOuruK5bKzfGcQs5znSsABQronOO4LdSy72tLsuDoEXCmUxdg5Z7slONNhmc23PKoIT+zrqcXkpsO04wm6N8SmwYffNcMXjp3nZlwvCCGEEEIOOYdrQFlwHfgAav35jU1PwJYLGFgZct0X1LKYEUthupZmc61aFtS5VgrbE8sYvOG4QSxiUJ3QqzAtDzsuEnp5VN8ys7OjWDpp4s+V1FKjBUzr6+ezKOdLroCNTUOAyiXbNeMmJo6aE1LYqiV8dRgbcpnjiLXuCSGEEEK6jcMlbpslPY01aznY1JlppGeXQqyhZoUtazWyxKkJjJtrK1ekK8Q0Ro7oc9LyPCKtxzWW5ARGzmX91uOct7hB6mRW/G9d3z+EcVSxqSyr8WkIo1zdMp8SSPXruyorJaSLWXf9fr12/jJWab0lhBBCyH3A4RK3PUmky1U4ki7I9p0q0NfrisMajvQiaT762UK1DMyNed38eiCcFJ7b2NwAkkdDQpWWZGhrrHvfWMlvPbaR6Y+0PMelwVxikTp/GwsY1de57hY6reX8cSuM45gsr8LVwYQQQgghXczhErdHMhhMl7AUOmjMWD5PepbaGu5uCqkYRg+S6QymXLcDZ5vFyJEEevuA6p0QuarE6rTrRuBukb7GccSlwVwSQApcec3a8DIGlMDVaR2fD4bRgn8zIYQQQsgh5ACKWz1AK3we2QRGLk6jOnbM79eq7jmOyT7PBUBRtmdPcGZasLrsXeRgNET6pkp3gnK+YA3MquCqTJ8U2yigEJrWZolPgx+Rl0vedcrX2CDTOjcWMRBNDTSLG6RGCCGEEHK4OXw+t2o6rkXA131vBnVZ/rWK9DSSK1b3vBC/UdN4ydkd1IAzN0yxOYO5+vN6YNYJ59woqspNQU5Btoikzw0gKLwbJzYNPhLoFaLavU4OIHOsxSKtaiCaHcZezv9LCCGEEHKAeGBHYD4TQgghhBByqOnu2RIIIYQQQsh9BcUtIYQQQgjpGihuCSGEEEJI10BxSwghhBBCugaKW0IIIYQQ0jXsg7itoFgzt6qey7blqarkfK27mt5Kx+9M2VW5JNIQOuVWPNvXcuY+mcecNQ9uc3jhNI66p6Ey2F3aGqVuGd69itwBnWO3lfLvCLLdq3TK9rvXdWq+o02Xi2xvrU+HRwghhOyWPRW3SjSoJWQDrJdQPeetnqXmdu2guFArfQXnyG0AOS/tWnJG5HEGyRvRK4m1HSFyBqoTLa6Etje0WoakCeR8yyeXRHs7Lr4/jbS31l9stq8V9He0qTqVglh+F7giHiGEkM6xZ+JWCtuB64NYuzGNtDnmIh7S9sMvdUZcM7t0IK169ZACN26J3L1guydLIXm/IgXuni+nvI2to9MtxZG5uL/fBUIIISTInolbJfoatSxuVVFOJ9Fjdpsn4ObQpBU4sls6rCvdPqY+e/HaXbHaau2cC4ShlsH1zq2awxpjbVu3w7bvr6B0wl4KOIi/LHLXNs1xj8i0GXePin2+wbKsLUPdPe2EU1wzh12i68wJS7k6qPM6jXa6g8szx5Z3kNjyl/jTHheeP16zOXnxxeNPc3vz6E+vuk+1TdlrsqpX1jMuLLXxBuORYR3H6TGz6p7l+lLvXmntHbgSW/KEEELI3iNXKNtTXlvcOdv77M4ts1vLvZ3FbO/O2S/fM/sN8PKzO8eyi+JOSfB+vf/sy2Y3FP819758dufYc2EprA3r1nNOXMFzt3Zu2eG56QuEL9Nul4cqn14r/ls7z8r9QP7858/uLL5mdn3oa+2ylOk9Zl1fP23W/SZt8WWp8ZehzoN3n8mDm+9gOv1lqcKy7td5sK4PlGFsnoI0WP52GQbDjyTQ1m89Z8UTluY25dFrk5J7oh06n2vbSjBeHY91jdj36s1fj/XutdNECCGEdIoOz5YgrXfHMdm3iNlTLXqP3l3FcjmLCff+BEbOZTG30g4LUgKZ4YwVVgVLsxkMDnhprd5xLFcppFQ37jZWr69i/JxntU6cmsC4cbuorJSQLmbF1YYjI5guZsyOQwZTF537dX6wsela0CKpKQvpC7uIcfO5XtoU6WlMO/eLtE3k7Dw2yPoS5kQ4WbdbW+ThouWe0kid5RbdbvHUSZF/WNf3D4k8VbGprNcN5MmibvmbtLtlIFDhlZexGuu7KtryhQKS83k37NR577M/zYY25rFc3TKfEqIdemkPxYoX/VlMpVfh3u5zGUphKFj/cfcSQgghB4DOiVvVbSoHxrQ4EKmvVz/opUsDSjhtuknVNlZyxaDdhdrXwuAan4iQwic3YXwKhSB74SYGr5vuW6crGluoloG5MTte2T0shco2NjeA5NE64qNV6rp3xKXNXNIGtu9UvfoJo06d1dCTRDoyX83kqX75h6e9B8k6Iq5y6TiWh29awlDgc1sJGVhps4s8ysF8CxjVx3c1i4jE7y5yetYcJoQQQg4JnRG38qF/ooqJFgfGKAHioETBNNbMzAvuZvx91Sh+93grg12k9aqEpXVt9Rs/aQtxKXB12EpcKIErhVAGUzfseJ24E+jtq7WEblVrvT5bQpZFuSqkkMXdTSGBHOLSZi5pA4mjyVqhqgStoU6dNUczeapf/qFpV2SQjHprWC/i9Ibf2mu3cZ0e24LeLPXz6LTzteFlDLQscHVPim8mk5w5RQghhBwSOiJuK1cKgN017ENbjoKDaTxMF60jMo9kMIgCCpHX7x7ZZTy3UsTSbBZDrhivoOhaa6Vec7q2pSsDMHkhXGDI68r5ktdlLkTQTLusY0d6kUQJM1ZZyLJ2RWWdtNVDWsGj68VCiewCSu4AO1Gnl0vms6CtddZcnuqWv3QHEGm30yYHSk2KFGfCXgCkiB2rWm4khqAVXVr9zcfmicujKNtL3nElzltGWohtES/dcMzHJlE9Jtb3gxBCCNkvOuaWUM6b7nxri5/43ekuDXb/SuvpIpKB8No6ibwUPLMlVH2CvAfJDdMVLDY17Zlxr5AzRai5e630OA96NTdusep1yV8AJmp8blslhfxtf1ksnfRbDOPSFo/s0vf7G0dyZASzN6ZRdbvRxcvMOXtKuPbWWTN5ql/+tWWo6jbUqiza5AX58mBmJHDClJZT6Y8qBLybphXswnIbl8cEeu14xoAFN60pZItCFFuzJcRjXa/CWwJouSWEEHLIeECOKjOfCYlGWiiv9GI2wj9aWupmkjdbHxhICCGEENIGKG5JG5Bzo+7zKm2EEEIIISF0eCowcrhxFg8YRbU4TWFLCCGEkI5Dyy0hhBBCCOkaaLklhBBCCCFdA8UtIYQQQgjpGvZB3Eq/zKI3r6jC8dU0W7OTzq8Xd7kSk55WzJl6am/m5JR5bH5FtD1BznRQJy0Nz2F7qNnvOtldfNvXck23S3XPbr4b8rvlS7P/u0IIIYQcdPZU3KoHbdiyo+tLwLyzCtJNNR/oXi7CUA+1ulMrSwDvMa2Im1DkvLNtXoWMHECEMB2oTrS40ptEiPHLSayxrRBCCDnE7Jm4lcJMTX5/w56839Cf9y3CkBnOoBy3cD8hpC7bPdndvaStA0MtC2NCCCHkYLBn4lauqNSYBamCUh6YOrMby6mzepnZWunKjbzH70Lh67pXXbj14rXvD3ZRB9JtnZduAgP5VWBWr4LmdAtra7h3T2PdxbXd475wzl7Fpjnu4subfa8Ja126OujzukzsfMa7ocQtray7wGPKLFDm8a4U/vLNXavJZU152uE57cJ3TbCOG2oDHv74AuXkC6sIUfsWteXuv198j04UAu3LoX65qnSNjbort0W2K+XiYtd5SP24bhHO+Zj6JIQQQtpMxwaUKT9X9bBbwtCuukHlg1svyeu6OWyMNij66lO5JOdw9cKeOGpOyIf4WBVTNyz3ChGvX2zJZVll/sw180mx7wgSne7JvkVzv/+8dJVYk8vC5vR5benexmp1EGvmenl+7nLz/pVSyCiruhPvuSomZ81JicobsOCcl+m6YMcj8nUZmJbnbkwDaqlaJ5+iHNIlzLjlIIXNqOWGIpe2jRJhmrkxr8wWciIuK+7Kip2uLMr5kinPIMF2cRsT1YLPRUaVQz7phWeW3fW1HfFyUcC0OR+o44bagEew3NUywI4YDpb5jSSW5cuND6vcTTm79zdAdLk22K6ksBUCOinqsvGV6OK+A4QQQkj76Zi4VX6u6oE3hCXXEtQCd1exXM5iwn3YJjByLou5lfY9Pj2XiQRS/TqeykoJad/CBTre8vVVSxRkhPDJw7VJ92eVIFmS4smke8HuRrbPhyLiOO9ZwxMDg0iXq2jOoUMIGZHG8XOWVb0/L8SO+SzQecv6041lrLqCVOTrorn/SAaDaVjXB9xM1pcwl55G1nVDSSFbBJbXout7fN4rs9SZaV8eU+ft8hzCOKrYDBPKNe1C3rsorncw5WDFpdMmhJ3ddsTLhSfk/HXcWBtwqC33xKkJjM8uKaFXU+ZHRjAtX258WOVu4sLGZkhc4USXayPtSrykGGHruRQ1Qsx3gBBCCNkDOiZuPVLIK+tflAUugr5e/TDeqqKMktudqraxkvvQ9yzEcmu+S1SK8AVo1wCvu3UbmxtA8qgjBww9yTpiM4HePvNRpjudRI/Z1ejz1TsxckVa+Jz8CLFRNocbZwvVcgZJf8QWOm9lZY11yu04JsurCHeL1mmuKQvD9p2qCKyAATcs7W7Rso+16RbXYYUMVnQILV+b8HJIHE3GC0ZZx+pDs21Axietp1456PRLcR4R1n5Sp13NjekejOaEbRjWd4AQQgjZAw6AuG0eJZgcpJhIT3td7M5m/H09C7HcWnN/cMJYG17GgBK4MSI0VlBpEaOIEcKRIkcKEDWa3eQnbLBeXXqQTAeFqpUuk7dx143A21oRNkosGtcK39bKwCfVLV7FhBuObYkNEFa+dzeFlHQIKweD8+IUhnqZkjTbBmR80opplYHaZJsMD2urGnRL2CMaaFfj89plo+UeFhe7rRFCCCHtpyPitnLJ9rnbxtULBZRzQ6brUg9+iX6Imu7dk0YcyW7xPZtKTKTlkud7qISaIXVS+nvavqM6HxjOWMJoFZNXrJxeK2ASpotedecHfCaFyDg9m8VQhIhUot4SXttry56FTVk0G/Fl1ELK51O5XsKkZaqTeZsba5NfpHQdmG2TD3TQGitdHszHGo70Ignb91e0uyu2RVK7T/jzWUFxrOS1LcnsjFXH5rxxLWisDTjI+BDwXfboSWb8/sOiPmdsP+g9JLZduaSQNz7J3ndTvyB4Lia6fPzEfAdUm+UAM0IIIe2lI+K2J1m13AjMoKq6ljwteuX1cpCQPZXYyAv6oet19zY6i0A9hBAUwtntUpcDfpwZIPrzZnCME6dOl3+gTQZTySU3TWrwkjuDhEy3HoDknNcDijz/RO2T6c2WYO/LrVB1usgFUvi5LwjxKFeLPitfK0M+n1uZNzXYyTkvt5YXBtBuJ1Vfd3yLgkb5/trpRrTl1hJjTrxLJ/2WXjmjhz+feuCbz0KdGwQueOd9XfMNtQEPGZ+v3OVmXm5q0nIBmKjxud0bYtuVD8eFSJSp6cEYuegMKJT3LmFoPmuudYj7DhBCCCHt54EdgflMDjGVSzlsnolwu3C78+3BU6QeanYDuSjCAVzg43AgZ8qYQfIGF4UghBCyfxxKn1tSS+p8tIBQ3cwNWnUJIYQQQg4zFLddjJqY3+kKpvWREEIIIfcBdEsghBBCCCFdAy23hBBCCCGka6C4JYQQQkgXIwe36hlb2rU0PznY7IO4lY0qZs5UNddlkw1OTjrf8tRUEj2tmBOnWsWsiTX6d0XIfLQyfpUWec7Kl/KZ3a907TEqL7uqs4OI/sH02q7c38t5W/c4fKttyjbpzWcbzOcuCfkONIW6f3flYH+34tvm3pR5Y99t/Tu1+4Uz6hBZ763SQHtRcWqx4WyNx+v//d41se1xF23ffU61Ob27YH9+h6387vpZLWnD78/dTbV0uFz4Jxm3Auh9wd78ph009lTcqi9S3BKpAv/E+p1BrUDWwQFXMv6hFfEDL6fr6sY5QMUPnJpSq6vyJn/A5TRXra3cdiB/YI6MYPZGEjPiQTKTdObr3W0+9wCZzhZXGwxDzjF8ENtm5dJxVM/djpw3uW2E1nurNNNeslhwV+pr1wp47UbOl91i25fzYJ+rYuCYrsf2fH928buxb7/Deg735GXxTJMrH+4qvjb9/hzpNXOtzwADjaWmPS96pFPsmbiVwnbg+iDW4paIFW/MMxtZjDe/hmzXoZf47c55aLd7sl05V2zmYhfO36qEo19QdWU+Dzzb6Dmzjy8UIfXeKq21FyEi57Moh66HfYiRArdVcdxm9vd3WApc8Uxrg5Buz++PfklpdQl+cvjYM3Fb3xoi3sguFJA8l4W3qG2ryLc7r3ur2a782C5C061SUVboiPDlNc65mrdq3aXinC+umcMuzaTdH1Yjb5Vhb5/62HdVvP6uHp0Wdb3J91VxrUq3us4fv9fdFMiD2Zx7SiecJWr1dcV1KxyVX/v+WquE7gFwzkd3Zzv1KPPnXO/Pe1T6A5i8+86ZY3/slmcCCfMjqeILrbeIulXdoLJHY1WvbhaVjsD9uWub5riHv2yC+fXjlI/vHjvdIXUul8sdcJfPleUn6ueaae/Ovb72HwhT4S93+zsQ1T5rw7Ax6bDaSaNtJJSw+g6yZXejB8P358/NT7Bc5BYaj6ln95zcP44BZ+W7mLKoW6eSevUTcBGISr+vngL3OL8j/vbSHGoZaJfAdzWuTk1adPpq20Zt/Ua3x1p03di/k423tfB2Ub/OAr8bThwRvxtOeNG/e/qagRPOSoLRaa6fNkG99hRMv1v2gTqNqROvrBppT8Hy0pv3zIpvD3a56eM6vNOzQFmtvujcH1EvChPPeszvhK/c7DTpcJt7LgbSUlMHNv5rm36OmPLyNJBJi50fX/xx5RSkmWubRE4Ftqe8trhztvfZnVtm1+Hel8/uHHtOHr23s5jt3Xn2ZX28IV5+dudYdlHcKdH3n/2y3mssPP81XlpCkHH1WuGr/Fjhq/NW/nxpu7XzrH2tide7Pj7t/nQFw5L7Z3cWXzO7UfjSI7Dqoybfdl2ZfHvxCcQxf/yB84badDvpDOZfh3HMyset58S+lSYVlpX+uLpS5+w0qTxYZdRg+v1pllj1EixP37W1eY1ul8E4ggTvF3fIsrHu0fm12p4KMypPzvW1aXL3Q+rcX946fF/5B8u4Jt3BNOnzbrpjyzMK/zUqjQ22EQffNTVpsDF5ds+b9AfKpH69hqRZhREML1h+en93dRpTP+o7b5+/tbNozt16zmpbKhxnP5imWzu3zOdGyl5R81ywy1F/9vJkwg3Ugbo2+Hus7g2Uv69+7XgkOiz/98jGn1d/Osx+RH7l99Wul1svm9TXqzORp2ejzoXkzwnPzVOgzptJc9201WtPNfsixV82cYt7/fXkpTm2rBppTxb+e+q0B1/bEPe+fMv97E+ToG69xPxOqHILfJ+C17rnTVhWuv3PxfAy98rWJnitCSvYPiK/iwKVdi8Mp4246Qn+hsSWU4Bmrm2SzsyWIN5AC+1aWODuKpbLWUy43WkJjJzLYm6lbfofSE9j2gn/yAgmckDVOKVXVkpIF7OeO0F/FlNYxqp6s1nCnLg363ZJ6bX4XS+MZtJeE1YK2SKwvGa9YYXRP4TxskmPwF6tLHFqAuOzM+4bYc1KZr74BP15q3sthSGrHFwaqNvxecf9QoeB3ITbVZQ6mQU2NsX7nGQbq9dXMX7O6wHQaV6KfrvLLXpplHWRXoXb09lI+hXynKgbp2xNPQ3Je1X9FlByLDmqXgaRCXZ17bZd1twvUnV+EePms1s2bllKZJvIxMchysfretZpKotw3FII1nkNGUyd8WLU7X/a6uoLhFnvO9BoeUbSQhtpGpHni074On9uG23we1m5NIqqr5w00q92sm/R6y5upd3E1Gm9+pFjHuA7n8KICSt13mpb8ncEVWxa1iPvu5NCKrbNRFHCaddiMwrMm+57U6bub65A1an1O6apoHiioAYKNdztX689xtJ8W/PcLBKijLz8xH4PxTMmb53LDGfqu2tE/u619hvaanvCegmT8Ndd6pSJu87vb2RZNUMr2qJchRtzf8otpxrq1kv070SsTjA0/Fxs5jeiXc8R6/uYGBgU3xfrOXAkg0H7OdtM+22lrTdIB8St84NkF2YL9PXqRrRVRdn3Iym2sZLXqOwuhxrT/m7ZxuaG03XhxCEeVmVd0aqbzUlnGHXSbqPCKhcwYF07kF9toCHYD1vZkGGJE1vEBc+F4e9CkN02fmTdLmPwRuN125PMIJ3sMXtBtlAtA3NqIICzyW45/0O2ceql3yN1ZhowP9hS9MP9YdJfQOeLL3+07AeHSxN1G4q8P51EVMnosskgWHSJo8nG45D0JBt8sIeh23/yaCD3MkzzwKj7HWi0PCOJbyPB7ja7e7kdNPK9lGk4DVswGGZHcXpjGmv2g3i37Ubi1mm9+ok472C6+3U67IHB4mH6wk0MXje/e7FdonHYA8o8gRreZnqQtB+ggrkx+cJws3FhK6jfHuNo7vdIjqNYwKi+ztcFH0Lge2g/t2R7ap02/IY23J7qlW/0729TZRVJ888f5RM9D/N9q68PWquXeJ0QRuxzsZnfiL14jhzpRVL86w28qNs0U07ta+t+9l/cyjdn8cf7sslKNvsN/kiqL5CD/GKJt4o160dSbcbfVw/UcrZ2O5Mn0Nsn37jsOPQmf3BDG4hqmIY6abdRYYk3at91cmvgDVW+aSmhJt/i4LeKyTdC9dYdcs6P/GHSo36duBfk26VFlHWqdeQDTbwh3rDyq7ZW6rF++n3It1H1Zq1F/6A1wla9uSrLRwVLs8aiG6SJug3FemC43N0UjySH2oe9SzMPb7s9No1u/6HWb/ODWvc7IGioPCOJbyPK99863owQaoS638s4S5K4b6FPCGP7Yb7bdiNxy7de/cScl8JWzt7ipsG29kikwNXnlChpWeDWEv1g9T+Ex+ebn2GhkfYYTfO/R87zZ2142V/PQaw0yIe9nLXCCX+tmDFnWqENv6ENt6e4uqv/+9twWUXQ8vPHDPrbuCF+8U9EC9zW6yVeJzRNM78R+/UcsWimnNrb1v3sv7h1GpK73cSUeC1UFa8eAPrtLvoHy5jRT5qHhRIhBRSa+IFrJ1Iczo1FOEGrhmV1ucq8XRZvWA7NpF12C86OhluelIUlxhHbCLXSlWVgOONvsKZ7pKAG98U9QINveFKImI8CZZ3a8HdH7R5p1QMmL7T6Jm8Tn/5adNzLV0q1ol+5ppQwc3ZG/JhaXU02u22X6u1YxGHd7582z1g8fW2vgqJ4g3e/G2FYbiju9U1ZSv2ol6O8M2BQItq4aEtuO6v3HZCElWe9Nu3SzjbSAnHfS1m+dXqplMXKFrittJuYOq1XP7XnK7gq45aCxrb4GKOERsRhiVlpZQpDWWRaEb3KlcpfBnJg0WTweyhKNV8zhZh+WHtuIbo8XBppj5E009ZEuJe865Tos4mss6B1VD/vWqeF78cu2lNY3VWuybjjfn/rlJVDYCCYTfTzJ749bF8renlRv7lR7K5eYnVCszTzG7FXz5FImimndrd1P53xuW0J8QVQXRrHsTxsd0VJC4L+gXNM23Jrd/djJEKsrxWr/i4C90El54+cNvPryU38CJyz/buaSbv4IfeFJTfzlikfRLavbA36B25uNunzvdHoc+VyPYuZdm9Qo3RV3EuA8+atrFOiUYofNbt7thmLShTS8qYe/la4rVmJYtIfgbJ4z5ZCRb/6kRe/ELZF10+9urXSE/qD7T24nXuXTvqtZ7Js/G3P8luMIifydMG7vtlu3RpUt17SKlf9/XS74Ot+BzQ15Vm3TXu0r420QvT3UlqS/L1Ucqt9wKXOixd88bAaUPe18HsWV6f16qfmvLhfPmyML7Rbpiuw2p4QDBumC1lsasrHBnqQGqe27as4Qq3Xuvwhr1XfI1F+F82+uncJQ/NZc62gwfYYReNtLYFeu/zGgAU7/ZF1JtIv/Set9FX77JeHer8btTT9/dhNewqpu9NVaQGM+/2tU1YG2WObdkS0TezzJ749JI7aaZK/n55FW7mmqfvM9zK2XuoQpxOappnfiD16jkTSTDntskzr8IAcVWY+k0NK5VIOm2da6arXyLdeNbl3Wx9QXY60Iux6gvL95UDXc6A8Y9u022W+S7/9LoDf3b2mguIxuYhA67+vQQ5ynR3ctEnjVgm9L/A7TxrjEFluSRSp87v44VVvvfUGkhE//q46sltqyzOuTdfM6kHIXqFmV2hm9g6yN0hrJYUtaRyK2/sW4+ahfALbZ5XodpQfYbCrjrRMM+UprUqy+2qgXdMIEhKFM0H9WNWa3okQcligWwIhhBBCCOkaaLklhBBCCCFdA8UtIYQQQgjpGihuFdr/tO70YdIPS02hIq/3T/YsfQfV1CMNz8/pYIXlhk8IIYQQQlqB4rYZ5Bx/J5cg5/arnvMPwpKTsU9Uj6Ov6SmK5CjQaT2voJwKiQNlCCGEEEJahgPKFNJ6qpcG5Ah4QgghhJDDy6Gz3DrTAenN7v43U1u55yLcBlzk5Nz+a4JhBN0UwuMOxqs3fa8+V1yXcTnngnHa5+w06nvbscoXIYQQQsj9wuESt2rBgSQWbt/Ghtzmh8wJKQSPY7JvUR9X5+QSgc34vsplMgvARXO/WqLRE6Jq5Ra5BKQJXy1Xp/xjpVuBuUcdzwC5RZ8FeG5sCUPm/EJu1VrnWwpbvdSdvl8uk2ev200IIYQQQprhEPrcVrHpiL/+lPZtvbuK5XLWP7G7XBs9XcJSvUFiFuP2YgZHRjAhhOjympSh21i9vupbQSlxagLjs0t+8eyI74Df7Pi854Mr16tOl6vYkjtq9ZtpZF0hrNff1nFq0eyt2U0IIYQQQupxuMStEJyzNwaxfMLu+hdsVVFOJ9FjdjUJ9PYJKXyn9W79nmTGfNpCtSwtsJ77gFxVac4W2tIKe2IZgzcaH0y2facKlAsYcMOUqy+tolxV0pcQQgghhDTJ4bPcSoFruvAhxKYSuD1JzxoaIHm0dcvnVnXVfOpBMp3B1A3HfcDZPEtv5ZJcQnS6qWVsE0eTyoXBH6bYOGMCIYQQQkhLHC5xu160BnlJwWk+HslgMF0yPrAGce3p2SyGTJe/tMKWr68aX1ctRufMZ4e5y44vrMDcP6HcAhLIDMPylfUj/XFPb0xjulkXgv4hjM+OWnmy4YAyQgghhJBmOVzitieJqusacBzLwzfNwC3pn3oTUxujbvd+3xiwYM03mzg1jSl4LgBLJxcxbs45jAsBW3Dvr2LKcjFInJrFQp/fhUAtuKD8bFdr3AsaE6Up5NXANSvMmtkUCCGEEEJIo3CeW0IIIYQQ0jUcwtkSCCGEEEIICYfilhBCCCGEdA0Ut4QQQgghpGuguCWEEEIIIV0DxS0hhBBCCOkaKG4JIYQQQkjXQHFLCCGEEEK6BopbQgghhBDSNVDcEkIIIYSQroHilhBCCCGEdA0Ut4QQQgghpGuguCWEEEIIIV0DxS0hhBBCCOkaKG4JIYQQQkjXQHFLCCGEEEK6BopbQgghhBDSNVDcEkIIIYSQruFwidv1IvqOHQvdcte2zUX3EXevIncsh6t3zf5eoOIooiI+Vi75y3n7Wg59Z6+ilZJ3w7LCJ4QQQgjZLQ/sCMznw4kUvJeTWHthBAlziLQZKUBPFIDiTcyeMqUsy31lCBvnU+Z8FRO38xB7DSMF7unZLBaavI8QQgghJIp9E7e3Nzbw9NNPY319Hf39/XjmmWdwrK/PnG2VCorHZpC8MYuRI+YQ2Re2724jccQI3RbFLSGEEEJIu9k3twRH2ErkX7m/WyqXRlEtTvuFbcB1wetG38bVs8dQXNd/nfNFnSSF6ma/VFEWxdr7Neoac67P7k6X8Z69iop73rgL2OkRYfuR4twJK961wk6T5wog749yS6ifX4k/PyFpUG4DwfMVlE4UvPyJz2WUcFpe4+Qxsh40vvzQLYEQQgghbWLfxK0jbB2C+00jxNPpjWlMO93khsoKsHD7NjbkNp9FOV/yCae5sQJw0Zy/MY3qWEAczo5i6aR9vxFxAikEB64PYs2Ev1as4rQtWMsFzGDanAMmTwjhJrvuTVzp2RkrLilMR4F5E9ftRSStuHyYvLrxnus1J+oTl1+Vn3zSKy+VhuOeAFYW2WUM3vDOD5pTLv15nTdI9wJxjXRTEMTVg3JHwKIJU5ZV0pwhhBBCCNkd+yZupSuCTXC/OYQwHCth/Fytn23qvNU13j+EcVSxaQnG8XnLheHICCZyq1hes6yKuUXknaT1ZzGVXkV1S+5sY/X6qi/OxKkJjM8ueeI57YntxMCgEHwZTJ0xqTmSwaAblmB9CXPi+qxbDClkhSD2pcWmXIVza6I/1bB/cXR+TX7mbVcCmYYM5lZ0jipXpJ+tbRlPYSTwMhFFZD0IwTwj/WyNCJYkTo1YaSCEEEIIaZ19E7fSx9YRtI7PbatId4Q5W4Ta+LrRxXXmcBQ9yYz5VI8tVMvSEuqE7YTvF88uR3qRFP96I3yBt+9UlaV3wA3rGAbyq0LDOhLWQlpH56G7/Xc5O4KXX5mfDJI9ZteQOJoENjaF9N3G5gaQPNqojA4QVQ9bVZTTSQSiJYQQQghpC/smbuXgsS/Nz6tuaPm35cFksos+YPlzUd3ocmCT6Q6/vYhxcyqKreqq+VSPHiTTGUy5XfTO1tpgNiUihUD3hyW2sHxJpMCV528MYvlE6wLXy6/Mj2VJtunrRUL86xVVVL0TYUmOI64eepJIW1ZoQgghhJB2sm/itj0YdwRfV7pF0Coou/7NR4e5y9a8rEYoTzTU1Z5AZhiYvNDavK41yK762dGaAV5hbF8remJWWYQbJzq/Mj8ZzI3Zg7lM+Z7UpZs66fc5luevxgx6c4mrB+WeUfL5Km9fu6rSoAaZ1Qy6I4QQQghpnEMlbpU7gvjrdw3QmxqNL31kYXX1r6DGcjsuBGrBOT9WxdSNxqevSpyaxUKf35WgdTGWQl4N8LLCinA5SBw1g9PUNXIQWuPW4rj8yvyoQXFu/HqAm+dzLN0hkr64q2FuCsqX15otIbYeEhh54SamNkZNmMcwcF3akQkhhBBCds/hX8ShYeSUWMdRPWeJt67mfssvIYQQQsihc0sghBBCCCEkGopbQgghhBDSNdxHbgmEEEIIIaTboeWWEEIIIYR0DRS3hBBCCCGkazh04lbOhaqm/XKpoOhMQRWKPN/gogdqVS0972ttPA46vkbmp62lwbSsF7HblcgOBk2UfRxmtbPWynyPsdpM+5AzXZj8yrZwdjdzKx/WNudPtz0H8va13C7LhBBCSDdzyC23UgSMolq8Gb2yVzMcGcHsjSRmhJCaSd7EbOjiDinkb+/l9FrioX45ibUWVz47tESKRFHHF/RqZ/fPlGZ6LuDkZSHoZFt4YUQc2UsOfptLnfdW75PzM2/seZkQQgg5rOybuL29sYFfGhtTk/bLv3J/t1QuHcdk32KECG0RKXCFkGprmM2wDgzxwe1xdwu9FxtfaKN7kAJXCLr9aAtsc4QQQrqIfRO3Tz/9NNbXdb+y/Cv3d4PsmjyNxRCLre7SdVa/yl3bNMcFYV28qju2iIr6692nttCuT6vL2MF3bxNdu+Y+JyzV3To26q4Ypo+HxOc7JrtvnbjFFtNdq8K/VNF/neuD7hzBcrDPy3Mi/Ip7v8mrfU+ke4jEXzfutfL+EwWUYa1y5h4X5WFWSAt3EzEE0h11bZi7if9YoDxrrMn+88U1c9ihLemQcYiyvWbCcsvUH3dU2LGY9MW3ufj0Oe3II6yNOgTLU27ed8TXFsUWHobXdhUyD752HtGuBM59Mu36vK5PO95gPv1parfLCSGEkD1HTgW2Hxzr7a3ZWuHWc707Z7Nnd45lF3fumWMe93YWs+L8l70z8vpjvWd3Fl9TezvPup81Kjzrek3tdR46jmdfNrsvPyvCf1bcYZD7oWmTWOGq++w4RLjPeffd+7KXR/X5OTcGfxzis5sWFb6VtgAqHHHey2+gvMLSVHPe23fCc9P22uLOWd/9djkG6yZQjupeqxwFt54LlGvgvE3D18pzdv344tXl56XR5NG9Pli+Og92XO1Mh6/OzTF/XdtlHYV1nUpPoH4j2lxc+mraowzHrssY/N+3mPgD+fPF6UubjjuqXan7rHLTvwfW9YE68qchEC8hhJBDwb5Zbvv7/Q6Twf1mKIstXV7GatBCencVy+UsJiyXgtT5RYybz9JfNlsEJq84tpgKlmYzGBzwd8hWLkk/3umG/A8rKyWki1mv27w/iymEpM1m6ypyY1VM3bB9HBMYOe91DScGBkUeq9hyPs8uuRYkFedwRl/bn7d8UVMYygHVOzEWvZztxiHiPJdF+fqqsoLpvNj59p9XpKcxbe5X6UIGU2dM7o+IskyvoioTHaSmbnTYcyvRdrHUecsdoX9I1GMVmxHl2vC18pzVdrbXllHODel715cwZ+VPkjg14V1vzmfd8hZ5uDgtysCjLelQWOUqqYlbt+XltZi6tmmyzdVPXwusF3F6wy7fmPgbpZF2Jdq88x1JncyK/63rfXW0jVXR1sfPWWmS9W999wghhBx89k3cPvPMM66glX/lfqukh6cxO5/E5ImAC8BWFeV0Ej1mNwyfUJSCITfhE7GyS1K6OzTmc7uNzQ0htvPHrW7M45gsRwg8xSomxwpIzocM3rG7tFU3veHICCZyJSwZN4SlWfth7u+SPT1rDjdKT9KIM52X5NFAvuX5KMFxpBdJ8a83mI8wZN04bgfONlYCNjY94RzEzJKgrx/FnDkcSsPX2qJQihm4InL7ThXo63WFjaYHSSPYw88HaEM6wlBxlwsYcMM+hoH8KsrRDc2ihTbXZPrqIstlDFgI+vZGxt8gzbYr2Z4jfyO2UBUJmBuzwlJ1GP1SRQgh5OCxb+L2WF8fvjQ/j43bt9Vfub8r+vNYk1bYE5ZPXJgQu7spHk0WyrqohaK0VI6ftB7Y4gFcyCex0PDMCwn0imyMz99W+bK36JH9GUzNT6MqHqA+/0L5kFcj1k0YNwIWwZPGGqUEuWNBk8L2OKrnvHgXcupE4yhxINF5CbX61nlhaAglKqa9/Dlb1EAmKYZO6FkS9LW2BT5AM9cK5AsOpDVaWv0wiIwRfImjyQhRlEFSFEDoebf8BG1KRxgq7tyiCdfaGmqrrbW5ZtIXj2inF6S4DgwMrBN/QzTbrmKRLzKirG4EwrrfZi4hhJBDzr6J271ATgm0kCvhtDO4RFkSS5ixBohUrgStQabb8nIOMxt2N28FxRMhD+A6KNE51uSgkx455ZhfbAStgqob2HxWyO7T2SUUfYJcWpq08NJIq675GMXsjGXtFnkeE+GZbliZl3K+YJ3XogSOC8RukC8VKKDQ6CCooBVeinrzsYZmrpWotCyjdGXZnzfVFe9P4/a1AiYdYadengoouQJRlM/lkvksaFc6wlD1Pxo+4EqK6noDn1ppcxHpU0Lb6qpXZeT/kvlwZjUJvvDVjb8Rmm1XsSSQGRYvzBciBmUqKzMHmBFCyEHnUItbSer8TUyJh9uAeujIOWgXkbTcBJZOhljPlIhZ9T2wpZ+tFCL+LskGHmTKglz1d4vGzFjgIqccm5fCWFx/qWJ8+0bdMApVIaTMpRrpT1vCnE+QGx9iM5tA37EloJ7lNjcIXHCu13MEu6JD5GVDuXs4549jeThqvt9mES8VL/jrRm6uWDOuF+5sCcp32eqGX0G0FbSZaxVaxMzNJn3+2bI8g+1n4PqgN8+smgdZC0R9Xgj/c5a1sW3pCEOkzRe33IxbjhTVjfjDNt3mItIn2ol6qXTuwwSmokyuQhAqVxkrHrnJeq8ffyPUaVdNol6Y+/zuH/bsC4QQQg4+D8hRZebzfYScnmgGSd/gmkbZzb2dRfoTD1Qn2rPgBTkwVC7lsHnm/uk6ZzsmhBASx6G33LaCstIGBpI1jOxqTu/G/5CQ9pI6fz/5hJoZDWxfeUIIIcTi/hK3ymfumJqOaK1Zq4+5t09Op3SxlcEqhJDWcWYFCfffJYQQQhzuU7cEQgghhBDSjdyXbgmEEEIIIaQ7obglhBBCCCFdw6ETt5VL1hQ9zhY39ZbylQ2sZHbg0P6EavoimV6Rn+9eyzU2pdgeIUekcwokQgghhBw2DqXlNl286VtBSM9LGSZgKyiqFZAO+mhyOVfnTSQvC6Eu0/vCCH7y1KxvlSWKTUIIIYSQ+uybuL29sYFfGhtTllb5V+63i9T523op3isB8bcODLW0DGcnkAJXiPVDk15CCCGEkIPHvonbp59+Guvretkg+VfutxO5Dn7atyRoDn1jo+4qSt6KRY4LgFyMwbg1KIuoM9WQ3IJWYPucc30IxqXA50rgHguE4Vv9TKZFxHnNTDcmw7fCkq4YA/lVd5WnmtWXwpZfDRxT5eHGfQy54HKlyn3DS5uIzSMkfFqSCSGEEHIQ2Tdx6whbh+D+rjnSiySq2FSidBur1UGsGbeFtWIGc5f9onNubAlD6vyiWQK0AFw0bg65VcsKLEWpXoZWu0HcxNRGxBr/alnfZay6wljce7mE8XMjSNxdRdUOI13CjE9gijirQ/p8YA5ebZnOALlFdb5mjk+5vr4Ib8lKU+WKyE8xq5ZklUJ0IJ/Egopbbnq5UjcPUtiOwTt/I4llKaYJIYQQQg4Z+yZu+/v9iiy4314SGDnvde8rq265ii2zLxmfz5u1+FMYyok/1oplqZNZYGNTi2EhSpfLWWttfRH2uSzmVsKsljIscf2aEa3m3iGZ1SMjyFthZIYzKFftFGUwdabVVZd0eF6aKliaFYJ3QMZnVnRy8ytJISsFv7m+slJC2ghhhUjrtBTThBBCCCGHjH0Tt88884wraOVfud9W7m6iiiR6nYFjdjf7iQLK5nAYPckM0skesxdgqyruLbnuDWobK3niN0DqzDQgxKQ8t7227FpPJfZMD8rNoI0kTk1g3HHLkEsEu2J9C9VyBsHsJY4mTR62sbkBJI/S05cQQgghh599E7fH+vrwpfl51e0t/8r9dmJ3wythq2ZJcLrZp5FWV7VATxLp9LQXlrNFDfySLgKQrgnSYgpjPdXCdibpzfKg3AzairQaa9cEaYn11t7vQTK9Cp+R2KGvV+QhgV5RFdU7fqm+VaVbAiGEEEIOH/smbvcOPVDr9MY0pk23//adqhFuGmlBjbPcxqLEagGF4ACsSKSLALB8pSQk7iAyynoatI5qV4F2I90p5laKWJo1rhAK47IwFhjANuYJYGm5LudL3vm7VzEzaz5LlD+z5dMrzhcsy7OySHNwGSGEEEIOAIdS3Jbzxz0XgWPHUT3nt6TqLno9s4DcCtVk65ZbEerIC3oAlhdnyIwFFtLHF7MlJOVAMn1E++mOOfcXUO1rznJr5ykybjmgTcRbtf1nBYlTs1grVi3XilFg3huYVnP+AjDhsyynkJ+30l9znhBCCCHkYPDAjsB8JoQQQggh5FDTBW4JhBBCCCGEaChuCSGEEEJI10BxSwghhBBCugaKW0IIIYQQ0jVQ3BJCCCGEkK6B4pYQQgghhHQNh07c2kvY6s1enGA/0YtHxM13uz9UUDyWw9W7ZjcKtRxxA9cRQgghhBxiDqXlNl20l7GViw90SuAeFoQAVssRz2JErZhGCCGEENKd7Ju4vb2xgV8aG1PWVvlX7reDxKlpTKWr2KRFMpp1YMhawY0QQgghpFvZN3H79NNPY31d9+HLv3K/PWyhWjYfBdvXcpbLwjHkrm2bMwLZNX/2KiruNaabXnXZm3suBWzA9rk63fr+uC1rcivxKncDJ6xAPuIwYTruEipNY6Pu0rrOceneEQzTOabu8aXnoLhgEEIIIYTEs2/i1hG2DsH9Vtm+NoO59CAyR7SQG8gnsWBcFjZuLyKZP+4XZeUCZjBtXBqAyRNC9K0M6etvTCM9O+MJWCkUx+CFN5/E5IWrQurVouK+Pog1c61yl7AFYjPxKmE7CsybeFU+CrHCWqHSW8XUjdvI98sD21it2mnKYO6yTn/qZBbl66teXu5excxsFhOnaN8lhBBCyOFl38Rtf79SWy7B/WYoC8HqWDSVoFRd7kLICbE2Pp9HylwnJByyUtCtWCIzPY1pI+ASA4NII4OpM+aOIxkMpldR3dK7lZUS0sWsF15/FlNYxmqNyDRxn/O6/hOnJjA+u+RZb5uIF+tLQrBPI+sWkcwHsLwWY73duoqcEra2X20CI+etNMl4y1WoaPqHMF728rK9toxybsgqO0IIIYSQw8e+idtnnnnGFbTyr9xvFXtA2YbrSyrdEzJI9qgdl8TRJLCx6VkobY70Iin+9YYOstrG5oZfSPcdO47JsiVCXbRrxNyYc53cRjGHCF/g2HhFzHeqytI74IYlRHx+FeXaiA2rmBwrIDkfMmDMdn04UYDnwWELZinO4YltQgghhJBDyr6J22N9ffjS/LwSpPKv3G8vPUja1k+bvl7Xetk4CfSKJI67rgHeprv8bWTcGeUO4L+2tdkJlCDPLQbCEtv5KPEp4p6fRlWIa58LhhS2apYEc790fzCnJNKSC+macHcVy9CuHYQQQgghh5l9E7d7TwKZ4QzmxuxpwSoojpUwfrI1i6T0S/WHF4WMG5H+uE0jXQZmR5sbwNUzglkhXm2BqyzAlrBXrgfms0K6QwhZW7qyDIiyc90XpLi2XCq2rxUwad2o5hquGQBHCCGEENJ5ukjcClF2atbMe+t05+tBWbWW1gbpzwfCE9vZcAEr417o87sStC4AU8gboeqG1cgCDEeEwJ2XglzHrf1+R90wCtWkz3LriPK52aR/IJnI90Ku5Oa7gAlM+W8khBBCCDmQPLAjMJ8JIYQQQgg51HSV5ZYQQgghhNzfUNwSQgghhJCugeKWEEIIIYR0DRS3hBBCCCGka6C4JYQQQgghXQPFLSGEEEII6RoobgkhhBBCSNdAcUsIIYQQQroGiltCCCGEENI1UNwSQgghhJAuAfj/A6KF1DW57b1AAAAAAElFTkSuQmCC;" parent="1" vertex="1">
          <mxGeometry x="70" y="10" width="695" height="440" as="geometry" />
        </mxCell>
        <mxCell id="-CA8VEKCJny2kj3JDTEL-2" value="" style="ellipse;whiteSpace=wrap;html=1;aspect=fixed;fillColor=#d5e8d4;strokeColor=#82b366;" parent="1" vertex="1">
          <mxGeometry x="404" y="470" width="20" height="20" as="geometry" />
        </mxCell>
        <mxCell id="-CA8VEKCJny2kj3JDTEL-3" value="" style="endArrow=classic;html=1;rounded=0;exitX=0.5;exitY=1;exitDx=0;exitDy=0;" parent="1" source="-CA8VEKCJny2kj3JDTEL-2" edge="1">
          <mxGeometry width="50" height="50" relative="1" as="geometry">
            <mxPoint x="390" y="840" as="sourcePoint" />
            <mxPoint x="414" y="520" as="targetPoint" />
            <Array as="points" />
          </mxGeometry>
        </mxCell>
        <mxCell id="-CA8VEKCJny2kj3JDTEL-4" value="set alarm" style="rounded=1;whiteSpace=wrap;html=1;" parent="1" vertex="1">
          <mxGeometry x="370.5" y="520" width="94" height="20" as="geometry" />
        </mxCell>
        <mxCell id="-CA8VEKCJny2kj3JDTEL-5" value="" style="endArrow=classic;html=1;rounded=0;exitX=0.5;exitY=1;exitDx=0;exitDy=0;" parent="1" edge="1">
          <mxGeometry width="50" height="50" relative="1" as="geometry">
            <mxPoint x="414" y="540" as="sourcePoint" />
            <mxPoint x="414" y="570" as="targetPoint" />
            <Array as="points" />
          </mxGeometry>
        </mxCell>
        <mxCell id="-CA8VEKCJny2kj3JDTEL-6" value="sleep" style="rounded=1;whiteSpace=wrap;html=1;" parent="1" vertex="1">
          <mxGeometry x="370.5" y="620" width="94" height="20" as="geometry" />
        </mxCell>
        <mxCell id="-CA8VEKCJny2kj3JDTEL-7" value="alarm buzzes" style="shape=step;perimeter=stepPerimeter;whiteSpace=wrap;html=1;fixedSize=1;" parent="1" vertex="1">
          <mxGeometry x="347.5" y="670" width="140" height="40" as="geometry" />
        </mxCell>
        <mxCell id="-CA8VEKCJny2kj3JDTEL-8" value="" style="rounded=0;whiteSpace=wrap;html=1;fillColor=#d5e8d4;strokeColor=#82b366;" parent="1" vertex="1">
          <mxGeometry x="467.5" y="670" width="20" height="40" as="geometry" />
        </mxCell>
        <mxCell id="-CA8VEKCJny2kj3JDTEL-9" value="" style="endArrow=classic;html=1;rounded=0;entryX=0.5;entryY=0;entryDx=0;entryDy=0;" parent="1" edge="1">
          <mxGeometry width="50" height="50" relative="1" as="geometry">
            <mxPoint x="415" y="640" as="sourcePoint" />
            <mxPoint x="414.5" y="670" as="targetPoint" />
            <Array as="points" />
          </mxGeometry>
        </mxCell>
        <mxCell id="-CA8VEKCJny2kj3JDTEL-10" value="" style="endArrow=classic;html=1;rounded=0;exitX=0.5;exitY=1;exitDx=0;exitDy=0;" parent="1" edge="1">
          <mxGeometry width="50" height="50" relative="1" as="geometry">
            <mxPoint x="414" y="710" as="sourcePoint" />
            <mxPoint x="414" y="740" as="targetPoint" />
            <Array as="points" />
          </mxGeometry>
        </mxCell>
        <mxCell id="-CA8VEKCJny2kj3JDTEL-11" value="wake up" style="rounded=1;whiteSpace=wrap;html=1;" parent="1" vertex="1">
          <mxGeometry x="370.5" y="740" width="94" height="20" as="geometry" />
        </mxCell>
        <mxCell id="-CA8VEKCJny2kj3JDTEL-12" value="" style="endArrow=classic;html=1;rounded=0;exitX=0.5;exitY=1;exitDx=0;exitDy=0;" parent="1" edge="1">
          <mxGeometry width="50" height="50" relative="1" as="geometry">
            <mxPoint x="414" y="760" as="sourcePoint" />
            <mxPoint x="414" y="790" as="targetPoint" />
            <Array as="points" />
          </mxGeometry>
        </mxCell>
        <mxCell id="-CA8VEKCJny2kj3JDTEL-13" value="toilet" style="rounded=1;whiteSpace=wrap;html=1;" parent="1" vertex="1">
          <mxGeometry x="370.5" y="790" width="94" height="20" as="geometry" />
        </mxCell>
        <mxCell id="-CA8VEKCJny2kj3JDTEL-14" value="" style="shape=link;html=1;rounded=1;strokeColor=#82b366;fillColor=#d5e8d4;sketch=0;strokeWidth=2;" parent="1" edge="1">
          <mxGeometry width="100" relative="1" as="geometry">
            <mxPoint x="366" y="844" as="sourcePoint" />
            <mxPoint x="466" y="844" as="targetPoint" />
          </mxGeometry>
        </mxCell>
        <mxCell id="-CA8VEKCJny2kj3JDTEL-16" value="" style="endArrow=classic;html=1;rounded=0;exitX=0.5;exitY=1;exitDx=0;exitDy=0;" parent="1" edge="1">
          <mxGeometry width="50" height="50" relative="1" as="geometry">
            <mxPoint x="413.8" y="810" as="sourcePoint" />
            <mxPoint x="413.8" y="840" as="targetPoint" />
            <Array as="points" />
          </mxGeometry>
        </mxCell>
        <mxCell id="-CA8VEKCJny2kj3JDTEL-18" value="" style="endArrow=classic;html=1;rounded=1;sketch=0;strokeColor=default;strokeWidth=1;" parent="1" edge="1">
          <mxGeometry width="50" height="50" relative="1" as="geometry">
            <mxPoint x="463.81" y="850" as="sourcePoint" />
            <mxPoint x="520" y="960" as="targetPoint" />
            <Array as="points">
              <mxPoint x="464" y="900" />
              <mxPoint x="520" y="900" />
            </Array>
          </mxGeometry>
        </mxCell>
        <mxCell id="-CA8VEKCJny2kj3JDTEL-19" value="" style="endArrow=classic;html=1;rounded=0;exitX=0.5;exitY=1;exitDx=0;exitDy=0;" parent="1" edge="1">
          <mxGeometry width="50" height="50" relative="1" as="geometry">
            <mxPoint x="368.5" y="850" as="sourcePoint" />
            <mxPoint x="368.5" y="880" as="targetPoint" />
            <Array as="points" />
          </mxGeometry>
        </mxCell>
        <mxCell id="-CA8VEKCJny2kj3JDTEL-20" value="boiling water" style="rounded=1;whiteSpace=wrap;html=1;" parent="1" vertex="1">
          <mxGeometry x="325" y="880" width="94" height="20" as="geometry" />
        </mxCell>
        <mxCell id="-CA8VEKCJny2kj3JDTEL-21" value="" style="endArrow=classic;html=1;rounded=0;exitX=0.5;exitY=1;exitDx=0;exitDy=0;" parent="1" edge="1">
          <mxGeometry width="50" height="50" relative="1" as="geometry">
            <mxPoint x="368.5" y="900" as="sourcePoint" />
            <mxPoint x="368.5" y="930" as="targetPoint" />
            <Array as="points" />
          </mxGeometry>
        </mxCell>
        <mxCell id="-CA8VEKCJny2kj3JDTEL-23" value="water is boiling" style="shape=step;perimeter=stepPerimeter;whiteSpace=wrap;html=1;fixedSize=1;size=8;" parent="1" vertex="1">
          <mxGeometry x="302" y="930" width="118" height="40" as="geometry" />
        </mxCell>
        <mxCell id="-CA8VEKCJny2kj3JDTEL-24" value="" style="rounded=0;whiteSpace=wrap;html=1;fillColor=#d5e8d4;strokeColor=#82b366;" parent="1" vertex="1">
          <mxGeometry x="407.5" y="930" width="20" height="40" as="geometry" />
        </mxCell>
        <mxCell id="-CA8VEKCJny2kj3JDTEL-28" value="" style="endArrow=classic;html=1;rounded=0;exitX=0.5;exitY=1;exitDx=0;exitDy=0;" parent="1" edge="1">
          <mxGeometry width="50" height="50" relative="1" as="geometry">
            <mxPoint x="368.5" y="970" as="sourcePoint" />
            <mxPoint x="368.5" y="1000" as="targetPoint" />
            <Array as="points" />
          </mxGeometry>
        </mxCell>
        <mxCell id="-CA8VEKCJny2kj3JDTEL-29" value="pour the tea" style="rounded=1;whiteSpace=wrap;html=1;" parent="1" vertex="1">
          <mxGeometry x="325" y="1000" width="94" height="20" as="geometry" />
        </mxCell>
        <mxCell id="-CA8VEKCJny2kj3JDTEL-30" value="" style="shape=collate;whiteSpace=wrap;html=1;" parent="1" vertex="1">
          <mxGeometry x="360.25" y="1050" width="15.5" height="30" as="geometry" />
        </mxCell>
        <mxCell id="-CA8VEKCJny2kj3JDTEL-31" value="8 minutes" style="text;html=1;strokeColor=none;fillColor=none;align=center;verticalAlign=middle;whiteSpace=wrap;rounded=0;" parent="1" vertex="1">
          <mxGeometry x="306.5" y="1050" width="60" height="30" as="geometry" />
        </mxCell>
        <mxCell id="-CA8VEKCJny2kj3JDTEL-32" value="" style="endArrow=classic;html=1;rounded=0;exitX=0.5;exitY=1;exitDx=0;exitDy=0;" parent="1" edge="1">
          <mxGeometry width="50" height="50" relative="1" as="geometry">
            <mxPoint x="368.25" y="1020" as="sourcePoint" />
            <mxPoint x="368.25" y="1050" as="targetPoint" />
            <Array as="points" />
          </mxGeometry>
        </mxCell>
        <mxCell id="-CA8VEKCJny2kj3JDTEL-34" value="spread bread" style="rounded=1;whiteSpace=wrap;html=1;" parent="1" vertex="1">
          <mxGeometry x="480" y="960" width="94" height="20" as="geometry" />
        </mxCell>
        <mxCell id="-CA8VEKCJny2kj3JDTEL-35" value="" style="endArrow=classic;html=1;rounded=1;sketch=0;strokeColor=default;strokeWidth=1;" parent="1" edge="1">
          <mxGeometry width="50" height="50" relative="1" as="geometry">
            <mxPoint x="520" y="980" as="sourcePoint" />
            <mxPoint x="460" y="1110" as="targetPoint" />
            <Array as="points">
              <mxPoint x="520.19" y="1030" />
              <mxPoint x="460" y="1030" />
            </Array>
          </mxGeometry>
        </mxCell>
        <mxCell id="-CA8VEKCJny2kj3JDTEL-36" value="" style="shape=link;html=1;rounded=1;strokeColor=#82b366;fillColor=#d5e8d4;sketch=0;strokeWidth=2;" parent="1" edge="1">
          <mxGeometry width="100" relative="1" as="geometry">
            <mxPoint x="364" y="1113" as="sourcePoint" />
            <mxPoint x="464" y="1113" as="targetPoint" />
          </mxGeometry>
        </mxCell>
        <mxCell id="-CA8VEKCJny2kj3JDTEL-37" value="" style="endArrow=classic;html=1;rounded=0;exitX=0.5;exitY=1;exitDx=0;exitDy=0;" parent="1" edge="1">
          <mxGeometry width="50" height="50" relative="1" as="geometry">
            <mxPoint x="367.71" y="1080" as="sourcePoint" />
            <mxPoint x="367.71" y="1110" as="targetPoint" />
            <Array as="points" />
          </mxGeometry>
        </mxCell>
        <mxCell id="-CA8VEKCJny2kj3JDTEL-38" value="" style="endArrow=classic;html=1;rounded=0;exitX=0.5;exitY=1;exitDx=0;exitDy=0;" parent="1" edge="1">
          <mxGeometry width="50" height="50" relative="1" as="geometry">
            <mxPoint x="413" y="1117" as="sourcePoint" />
            <mxPoint x="413" y="1147" as="targetPoint" />
            <Array as="points" />
          </mxGeometry>
        </mxCell>
        <mxCell id="-CA8VEKCJny2kj3JDTEL-39" value="have breakfast" style="rounded=1;whiteSpace=wrap;html=1;" parent="1" vertex="1">
          <mxGeometry x="367.5" y="1147" width="94" height="20" as="geometry" />
        </mxCell>
        <mxCell id="-CA8VEKCJny2kj3JDTEL-40" value="" style="endArrow=classic;html=1;rounded=0;exitX=0.5;exitY=1;exitDx=0;exitDy=0;" parent="1" edge="1">
          <mxGeometry width="50" height="50" relative="1" as="geometry">
            <mxPoint x="413" y="1167" as="sourcePoint" />
            <mxPoint x="413" y="1197" as="targetPoint" />
            <Array as="points" />
          </mxGeometry>
        </mxCell>
        <mxCell id="-CA8VEKCJny2kj3JDTEL-41" value="dress up" style="rounded=1;whiteSpace=wrap;html=1;" parent="1" vertex="1">
          <mxGeometry x="367.5" y="1197" width="94" height="20" as="geometry" />
        </mxCell>
        <mxCell id="-CA8VEKCJny2kj3JDTEL-42" value="" style="endArrow=classic;html=1;rounded=0;exitX=0.5;exitY=1;exitDx=0;exitDy=0;" parent="1" edge="1">
          <mxGeometry width="50" height="50" relative="1" as="geometry">
            <mxPoint x="413" y="1217" as="sourcePoint" />
            <mxPoint x="413" y="1247" as="targetPoint" />
            <Array as="points" />
          </mxGeometry>
        </mxCell>
        <mxCell id="-CA8VEKCJny2kj3JDTEL-43" value="" style="rhombus;whiteSpace=wrap;html=1;fillColor=#d5e8d4;strokeColor=#82b366;" parent="1" vertex="1">
          <mxGeometry x="388" y="1245" width="51" height="40" as="geometry" />
        </mxCell>
        <mxCell id="-CA8VEKCJny2kj3JDTEL-44" value="" style="endArrow=classic;html=1;rounded=1;sketch=0;strokeColor=default;strokeWidth=1;exitX=0;exitY=0.5;exitDx=0;exitDy=0;" parent="1" source="-CA8VEKCJny2kj3JDTEL-43" edge="1">
          <mxGeometry width="50" height="50" relative="1" as="geometry">
            <mxPoint x="500" y="1180" as="sourcePoint" />
            <mxPoint x="230" y="1300" as="targetPoint" />
            <Array as="points">
              <mxPoint x="230" y="1265" />
            </Array>
          </mxGeometry>
        </mxCell>
        <mxCell id="-CA8VEKCJny2kj3JDTEL-45" value="[week]" style="text;html=1;strokeColor=none;fillColor=none;align=center;verticalAlign=middle;whiteSpace=wrap;rounded=0;" parent="1" vertex="1">
          <mxGeometry x="265" y="1230" width="90" height="30" as="geometry" />
        </mxCell>
        <mxCell id="-CA8VEKCJny2kj3JDTEL-46" value="go to work" style="rounded=1;whiteSpace=wrap;html=1;" parent="1" vertex="1">
          <mxGeometry x="184" y="1300" width="94" height="20" as="geometry" />
        </mxCell>
        <mxCell id="-CA8VEKCJny2kj3JDTEL-47" value="" style="ellipse;whiteSpace=wrap;html=1;aspect=fixed;fillColor=#d5e8d4;strokeColor=#82b366;" parent="1" vertex="1">
          <mxGeometry x="221" y="1350" width="20" height="20" as="geometry" />
        </mxCell>
        <mxCell id="-CA8VEKCJny2kj3JDTEL-48" value="" style="endArrow=classic;html=1;rounded=0;exitX=0.5;exitY=1;exitDx=0;exitDy=0;" parent="1" edge="1">
          <mxGeometry width="50" height="50" relative="1" as="geometry">
            <mxPoint x="230" y="1320" as="sourcePoint" />
            <mxPoint x="230" y="1350" as="targetPoint" />
            <Array as="points" />
          </mxGeometry>
        </mxCell>
        <mxCell id="-CA8VEKCJny2kj3JDTEL-49" value="" style="endArrow=classic;html=1;rounded=1;sketch=0;strokeColor=default;strokeWidth=1;exitX=1;exitY=0.5;exitDx=0;exitDy=0;" parent="1" edge="1">
          <mxGeometry width="50" height="50" relative="1" as="geometry">
            <mxPoint x="634.5" y="1320" as="sourcePoint" />
            <mxPoint x="815.5" y="1320" as="targetPoint" />
          </mxGeometry>
        </mxCell>
        <mxCell id="-CA8VEKCJny2kj3JDTEL-50" value="&lt;span style=&quot;color: rgb(0, 0, 0); font-family: Helvetica; font-size: 12px; font-style: normal; font-variant-ligatures: normal; font-variant-caps: normal; font-weight: 400; letter-spacing: normal; orphans: 2; text-align: center; text-indent: 0px; text-transform: none; widows: 2; word-spacing: 0px; -webkit-text-stroke-width: 0px; background-color: rgb(248, 249, 250); text-decoration-thickness: initial; text-decoration-style: initial; text-decoration-color: initial; float: none; display: inline !important;&quot;&gt;[saturday]&lt;/span&gt;" style="text;whiteSpace=wrap;html=1;" parent="1" vertex="1">
          <mxGeometry x="676.5" y="1290" width="56" height="20" as="geometry" />
        </mxCell>
        <mxCell id="-CA8VEKCJny2kj3JDTEL-51" value="shopping" style="rounded=1;whiteSpace=wrap;html=1;" parent="1" vertex="1">
          <mxGeometry x="815.5" y="1310" width="94" height="20" as="geometry" />
        </mxCell>
        <mxCell id="-CA8VEKCJny2kj3JDTEL-52" value="" style="endArrow=classic;html=1;rounded=0;exitX=1;exitY=0.5;exitDx=0;exitDy=0;" parent="1" source="-CA8VEKCJny2kj3JDTEL-51" edge="1">
          <mxGeometry width="50" height="50" relative="1" as="geometry">
            <mxPoint x="435.5" y="1385.0000000000002" as="sourcePoint" />
            <mxPoint x="945.5" y="1320" as="targetPoint" />
            <Array as="points" />
          </mxGeometry>
        </mxCell>
        <mxCell id="-CA8VEKCJny2kj3JDTEL-53" value="" style="ellipse;whiteSpace=wrap;html=1;aspect=fixed;fillColor=#d5e8d4;strokeColor=#82b366;" parent="1" vertex="1">
          <mxGeometry x="945.5" y="1310" width="20" height="20" as="geometry" />
        </mxCell>
        <mxCell id="-CA8VEKCJny2kj3JDTEL-54" value="" style="endArrow=classic;html=1;rounded=1;sketch=0;strokeColor=default;strokeWidth=1;exitX=0.5;exitY=1;exitDx=0;exitDy=0;" parent="1" edge="1">
          <mxGeometry width="50" height="50" relative="1" as="geometry">
            <mxPoint x="610" y="1340" as="sourcePoint" />
            <mxPoint x="610.5" y="1375" as="targetPoint" />
          </mxGeometry>
        </mxCell>
        <mxCell id="-CA8VEKCJny2kj3JDTEL-55" value="&lt;span style=&quot;color: rgb(0, 0, 0); font-family: Helvetica; font-size: 12px; font-style: normal; font-variant-ligatures: normal; font-variant-caps: normal; font-weight: 400; letter-spacing: normal; orphans: 2; text-align: center; text-indent: 0px; text-transform: none; widows: 2; word-spacing: 0px; -webkit-text-stroke-width: 0px; background-color: rgb(248, 249, 250); text-decoration-thickness: initial; text-decoration-style: initial; text-decoration-color: initial; float: none; display: inline !important;&quot;&gt;[sunday]&lt;/span&gt;" style="text;whiteSpace=wrap;html=1;" parent="1" vertex="1">
          <mxGeometry x="618" y="1340" width="51" height="25" as="geometry" />
        </mxCell>
        <mxCell id="-CA8VEKCJny2kj3JDTEL-56" value="" style="rhombus;whiteSpace=wrap;html=1;fillColor=#d5e8d4;strokeColor=#82b366;" parent="1" vertex="1">
          <mxGeometry x="584.5" y="1373" width="51" height="40" as="geometry" />
        </mxCell>
        <mxCell id="-CA8VEKCJny2kj3JDTEL-57" value="" style="endArrow=classic;html=1;rounded=1;sketch=0;strokeColor=default;strokeWidth=1;exitX=0;exitY=0.5;exitDx=0;exitDy=0;" parent="1" source="-CA8VEKCJny2kj3JDTEL-56" edge="1">
          <mxGeometry width="50" height="50" relative="1" as="geometry">
            <mxPoint x="756.5" y="1255" as="sourcePoint" />
            <mxPoint x="506.5" y="1435" as="targetPoint" />
            <Array as="points">
              <mxPoint x="506.5" y="1393" />
            </Array>
          </mxGeometry>
        </mxCell>
        <mxCell id="-CA8VEKCJny2kj3JDTEL-58" value="&lt;span style=&quot;color: rgb(0, 0, 0); font-family: Helvetica; font-size: 12px; font-style: normal; font-variant-ligatures: normal; font-variant-caps: normal; font-weight: 400; letter-spacing: normal; orphans: 2; text-align: center; text-indent: 0px; text-transform: none; widows: 2; word-spacing: 0px; -webkit-text-stroke-width: 0px; background-color: rgb(248, 249, 250); text-decoration-thickness: initial; text-decoration-style: initial; text-decoration-color: initial; float: none; display: inline !important;&quot;&gt;[sunny day]&lt;/span&gt;" style="text;whiteSpace=wrap;html=1;" parent="1" vertex="1">
          <mxGeometry x="512" y="1365" width="75.5" height="20" as="geometry" />
        </mxCell>
        <mxCell id="-CA8VEKCJny2kj3JDTEL-59" value="trip" style="rounded=1;whiteSpace=wrap;html=1;" parent="1" vertex="1">
          <mxGeometry x="461.5" y="1435" width="94" height="20" as="geometry" />
        </mxCell>
        <mxCell id="-CA8VEKCJny2kj3JDTEL-60" value="" style="ellipse;whiteSpace=wrap;html=1;aspect=fixed;fillColor=#d5e8d4;strokeColor=#82b366;" parent="1" vertex="1">
          <mxGeometry x="498.5" y="1485" width="20" height="20" as="geometry" />
        </mxCell>
        <mxCell id="-CA8VEKCJny2kj3JDTEL-61" value="" style="endArrow=classic;html=1;rounded=0;exitX=0.5;exitY=1;exitDx=0;exitDy=0;" parent="1" edge="1">
          <mxGeometry width="50" height="50" relative="1" as="geometry">
            <mxPoint x="507.5" y="1455" as="sourcePoint" />
            <mxPoint x="507.5" y="1485" as="targetPoint" />
            <Array as="points" />
          </mxGeometry>
        </mxCell>
        <mxCell id="-CA8VEKCJny2kj3JDTEL-62" value="" style="endArrow=classic;html=1;rounded=1;sketch=0;strokeColor=default;strokeWidth=1;exitX=1;exitY=0.5;exitDx=0;exitDy=0;" parent="1" source="-CA8VEKCJny2kj3JDTEL-56" edge="1">
          <mxGeometry width="50" height="50" relative="1" as="geometry">
            <mxPoint x="636.5" y="1395" as="sourcePoint" />
            <mxPoint x="816.5" y="1425" as="targetPoint" />
            <Array as="points">
              <mxPoint x="816.5" y="1393" />
            </Array>
          </mxGeometry>
        </mxCell>
        <mxCell id="-CA8VEKCJny2kj3JDTEL-63" value="&lt;span style=&quot;color: rgb(0, 0, 0); font-family: Helvetica; font-size: 12px; font-style: normal; font-variant-ligatures: normal; font-variant-caps: normal; font-weight: 400; letter-spacing: normal; orphans: 2; text-align: center; text-indent: 0px; text-transform: none; widows: 2; word-spacing: 0px; -webkit-text-stroke-width: 0px; background-color: rgb(248, 249, 250); text-decoration-thickness: initial; text-decoration-style: initial; text-decoration-color: initial; float: none; display: inline !important;&quot;&gt;[claudy weather]&lt;/span&gt;" style="text;whiteSpace=wrap;html=1;" parent="1" vertex="1">
          <mxGeometry x="671.5" y="1365" width="92.5" height="20" as="geometry" />
        </mxCell>
        <mxCell id="-CA8VEKCJny2kj3JDTEL-64" value="" style="shape=link;html=1;rounded=1;strokeColor=#82b366;fillColor=#d5e8d4;sketch=0;strokeWidth=2;" parent="1" edge="1">
          <mxGeometry width="100" relative="1" as="geometry">
            <mxPoint x="722" y="1429" as="sourcePoint" />
            <mxPoint x="911.5" y="1429" as="targetPoint" />
          </mxGeometry>
        </mxCell>
        <mxCell id="-CA8VEKCJny2kj3JDTEL-65" value="" style="shape=link;html=1;rounded=1;strokeColor=#82b366;fillColor=#d5e8d4;sketch=0;strokeWidth=2;" parent="1" edge="1">
          <mxGeometry width="100" relative="1" as="geometry">
            <mxPoint x="721.0000000000002" y="1519" as="sourcePoint" />
            <mxPoint x="910.5" y="1519" as="targetPoint" />
          </mxGeometry>
        </mxCell>
        <mxCell id="-CA8VEKCJny2kj3JDTEL-66" value="" style="endArrow=classic;html=1;rounded=0;exitX=0.5;exitY=1;exitDx=0;exitDy=0;" parent="1" edge="1">
          <mxGeometry width="50" height="50" relative="1" as="geometry">
            <mxPoint x="882" y="1435" as="sourcePoint" />
            <mxPoint x="882" y="1464.9999999999998" as="targetPoint" />
            <Array as="points" />
          </mxGeometry>
        </mxCell>
        <mxCell id="-CA8VEKCJny2kj3JDTEL-67" value="grind the coffee" style="rounded=1;whiteSpace=wrap;html=1;" parent="1" vertex="1">
          <mxGeometry x="836.5" y="1465" width="94" height="20" as="geometry" />
        </mxCell>
        <mxCell id="-CA8VEKCJny2kj3JDTEL-68" value="" style="endArrow=classic;html=1;rounded=0;exitX=0.5;exitY=1;exitDx=0;exitDy=0;" parent="1" edge="1">
          <mxGeometry width="50" height="50" relative="1" as="geometry">
            <mxPoint x="882.24" y="1485" as="sourcePoint" />
            <mxPoint x="882.24" y="1514.9999999999998" as="targetPoint" />
            <Array as="points" />
          </mxGeometry>
        </mxCell>
        <mxCell id="-CA8VEKCJny2kj3JDTEL-69" value="" style="endArrow=classic;html=1;rounded=0;exitX=0.5;exitY=1;exitDx=0;exitDy=0;" parent="1" edge="1">
          <mxGeometry width="50" height="50" relative="1" as="geometry">
            <mxPoint x="750" y="1435" as="sourcePoint" />
            <mxPoint x="750" y="1465" as="targetPoint" />
            <Array as="points" />
          </mxGeometry>
        </mxCell>
        <mxCell id="-CA8VEKCJny2kj3JDTEL-70" value="boiling water" style="rounded=1;whiteSpace=wrap;html=1;" parent="1" vertex="1">
          <mxGeometry x="706.5" y="1465" width="94" height="20" as="geometry" />
        </mxCell>
        <mxCell id="-CA8VEKCJny2kj3JDTEL-71" value="" style="endArrow=classic;html=1;rounded=0;exitX=0.5;exitY=1;exitDx=0;exitDy=0;" parent="1" edge="1">
          <mxGeometry width="50" height="50" relative="1" as="geometry">
            <mxPoint x="750" y="1485" as="sourcePoint" />
            <mxPoint x="750" y="1515" as="targetPoint" />
            <Array as="points" />
          </mxGeometry>
        </mxCell>
        <mxCell id="-CA8VEKCJny2kj3JDTEL-72" value="" style="endArrow=classic;html=1;rounded=1;sketch=0;strokeColor=default;strokeWidth=1;" parent="1" edge="1">
          <mxGeometry width="50" height="50" relative="1" as="geometry">
            <mxPoint x="656.5" y="1395" as="sourcePoint" />
            <mxPoint x="656.5" y="1575" as="targetPoint" />
          </mxGeometry>
        </mxCell>
        <mxCell id="-CA8VEKCJny2kj3JDTEL-73" value="turn pc on" style="rounded=1;whiteSpace=wrap;html=1;" parent="1" vertex="1">
          <mxGeometry x="600.5" y="1575" width="120" height="20" as="geometry" />
        </mxCell>
        <mxCell id="-CA8VEKCJny2kj3JDTEL-74" value="" style="endArrow=classic;html=1;rounded=0;exitX=0.5;exitY=1;exitDx=0;exitDy=0;" parent="1" edge="1">
          <mxGeometry width="50" height="50" relative="1" as="geometry">
            <mxPoint x="816.5" y="1522" as="sourcePoint" />
            <mxPoint x="816.5" y="1552" as="targetPoint" />
            <Array as="points" />
          </mxGeometry>
        </mxCell>
        <mxCell id="h9pU4cVGm7gbYkLVTap9-1" value="water is boiling" style="shape=step;perimeter=stepPerimeter;whiteSpace=wrap;html=1;fixedSize=1;size=8;" vertex="1" parent="1">
          <mxGeometry x="754.5" y="1552" width="118" height="40" as="geometry" />
        </mxCell>
        <mxCell id="h9pU4cVGm7gbYkLVTap9-2" value="" style="rounded=0;whiteSpace=wrap;html=1;fillColor=#d5e8d4;strokeColor=#82b366;" vertex="1" parent="1">
          <mxGeometry x="860" y="1552" width="20" height="40" as="geometry" />
        </mxCell>
        <mxCell id="h9pU4cVGm7gbYkLVTap9-3" value="" style="endArrow=classic;html=1;rounded=0;exitX=0.5;exitY=1;exitDx=0;exitDy=0;" edge="1" parent="1">
          <mxGeometry width="50" height="50" relative="1" as="geometry">
            <mxPoint x="816.5" y="1592" as="sourcePoint" />
            <mxPoint x="816.5" y="1622" as="targetPoint" />
            <Array as="points" />
          </mxGeometry>
        </mxCell>
        <mxCell id="h9pU4cVGm7gbYkLVTap9-5" value="pour the coffee" style="rounded=1;whiteSpace=wrap;html=1;" vertex="1" parent="1">
          <mxGeometry x="769.5" y="1623" width="94" height="20" as="geometry" />
        </mxCell>
        <mxCell id="h9pU4cVGm7gbYkLVTap9-6" value="" style="endArrow=classic;html=1;rounded=0;exitX=0.5;exitY=1;exitDx=0;exitDy=0;" edge="1" parent="1">
          <mxGeometry width="50" height="50" relative="1" as="geometry">
            <mxPoint x="816.5" y="1643" as="sourcePoint" />
            <mxPoint x="816.5" y="1673" as="targetPoint" />
            <Array as="points" />
          </mxGeometry>
        </mxCell>
        <mxCell id="h9pU4cVGm7gbYkLVTap9-7" value="" style="endArrow=classic;html=1;rounded=0;" edge="1" parent="1">
          <mxGeometry width="50" height="50" relative="1" as="geometry">
            <mxPoint x="656.5" y="1595" as="sourcePoint" />
            <mxPoint x="656.5" y="1673" as="targetPoint" />
            <Array as="points" />
          </mxGeometry>
        </mxCell>
        <mxCell id="h9pU4cVGm7gbYkLVTap9-8" value="" style="shape=link;html=1;rounded=1;strokeColor=#82b366;fillColor=#d5e8d4;sketch=0;strokeWidth=2;" edge="1" parent="1">
          <mxGeometry width="100" relative="1" as="geometry">
            <mxPoint x="638.5" y="1677" as="sourcePoint" />
            <mxPoint x="828" y="1677" as="targetPoint" />
          </mxGeometry>
        </mxCell>
        <mxCell id="h9pU4cVGm7gbYkLVTap9-9" value="" style="ellipse;whiteSpace=wrap;html=1;aspect=fixed;fillColor=#d5e8d4;strokeColor=#82b366;" vertex="1" parent="1">
          <mxGeometry x="727.5" y="1710" width="20" height="20" as="geometry" />
        </mxCell>
        <mxCell id="h9pU4cVGm7gbYkLVTap9-10" value="" style="endArrow=classic;html=1;rounded=0;exitX=0.5;exitY=1;exitDx=0;exitDy=0;" edge="1" parent="1">
          <mxGeometry width="50" height="50" relative="1" as="geometry">
            <mxPoint x="736.5" y="1680" as="sourcePoint" />
            <mxPoint x="736.5" y="1710" as="targetPoint" />
            <Array as="points" />
          </mxGeometry>
        </mxCell>
        <mxCell id="h9pU4cVGm7gbYkLVTap9-11" value="" style="ellipse;whiteSpace=wrap;html=1;aspect=fixed;fillColor=#d5e8d4;strokeColor=#82b366;" vertex="1" parent="1">
          <mxGeometry x="226" y="1355" width="10" height="10" as="geometry" />
        </mxCell>
        <mxCell id="h9pU4cVGm7gbYkLVTap9-12" value="" style="ellipse;whiteSpace=wrap;html=1;aspect=fixed;fillColor=#d5e8d4;strokeColor=#82b366;" vertex="1" parent="1">
          <mxGeometry x="503.5" y="1490" width="10" height="10" as="geometry" />
        </mxCell>
        <mxCell id="h9pU4cVGm7gbYkLVTap9-13" value="" style="ellipse;whiteSpace=wrap;html=1;aspect=fixed;fillColor=#d5e8d4;strokeColor=#82b366;" vertex="1" parent="1">
          <mxGeometry x="732.5" y="1715" width="10" height="10" as="geometry" />
        </mxCell>
        <mxCell id="h9pU4cVGm7gbYkLVTap9-14" value="" style="ellipse;whiteSpace=wrap;html=1;aspect=fixed;fillColor=#d5e8d4;strokeColor=#82b366;" vertex="1" parent="1">
          <mxGeometry x="950.5" y="1315" width="10" height="10" as="geometry" />
        </mxCell>
        <mxCell id="h9pU4cVGm7gbYkLVTap9-16" value="" style="rhombus;whiteSpace=wrap;html=1;fillColor=#d5e8d4;strokeColor=#82b366;" vertex="1" parent="1">
          <mxGeometry x="584.5" y="1300" width="51" height="40" as="geometry" />
        </mxCell>
        <mxCell id="h9pU4cVGm7gbYkLVTap9-18" value="" style="endArrow=classic;html=1;rounded=1;sketch=0;strokeColor=default;strokeWidth=1;exitX=0.946;exitY=0.489;exitDx=0;exitDy=0;exitPerimeter=0;" edge="1" parent="1" source="-CA8VEKCJny2kj3JDTEL-43">
          <mxGeometry width="50" height="50" relative="1" as="geometry">
            <mxPoint x="483" y="1275" as="sourcePoint" />
            <mxPoint x="610" y="1300" as="targetPoint" />
            <Array as="points">
              <mxPoint x="610" y="1265" />
            </Array>
          </mxGeometry>
        </mxCell>
        <mxCell id="h9pU4cVGm7gbYkLVTap9-19" value="[week-end]" style="text;html=1;strokeColor=none;fillColor=none;align=center;verticalAlign=middle;whiteSpace=wrap;rounded=0;" vertex="1" parent="1">
          <mxGeometry x="467.5" y="1230" width="90" height="30" as="geometry" />
        </mxCell>
        <mxCell id="h9pU4cVGm7gbYkLVTap9-22" value="signal" style="shape=mxgraph.sysml.accEvent;flipH=1;whiteSpace=wrap;align=center;direction=west;" vertex="1" parent="1">
          <mxGeometry x="1090" y="470" width="140" height="40" as="geometry" />
        </mxCell>
        <mxCell id="h9pU4cVGm7gbYkLVTap9-23" value="start" style="ellipse;whiteSpace=wrap;html=1;aspect=fixed;fillColor=#d5e8d4;strokeColor=#82b366;" vertex="1" parent="1">
          <mxGeometry x="1120" y="545" width="80" height="80" as="geometry" />
        </mxCell>
        <mxCell id="h9pU4cVGm7gbYkLVTap9-24" value="stop" style="ellipse;whiteSpace=wrap;html=1;aspect=fixed;fillColor=#d5e8d4;strokeColor=#82b366;" vertex="1" parent="1">
          <mxGeometry x="1120" y="650" width="80" height="80" as="geometry" />
        </mxCell>
        <mxCell id="h9pU4cVGm7gbYkLVTap9-25" value="end" style="ellipse;whiteSpace=wrap;html=1;aspect=fixed;fillColor=#d5e8d4;strokeColor=#82b366;" vertex="1" parent="1">
          <mxGeometry x="1135" y="665" width="50" height="50" as="geometry" />
        </mxCell>
        <mxCell id="h9pU4cVGm7gbYkLVTap9-26" value="condition" style="rhombus;whiteSpace=wrap;html=1;fillColor=#d5e8d4;strokeColor=#82b366;" vertex="1" parent="1">
          <mxGeometry x="1120" y="750" width="80" height="80" as="geometry" />
        </mxCell>
        <mxCell id="h9pU4cVGm7gbYkLVTap9-27" value="" style="shape=link;html=1;rounded=0;fillColor=#d5e8d4;strokeColor=#82b366;" edge="1" parent="1">
          <mxGeometry width="100" relative="1" as="geometry">
            <mxPoint x="1110" y="879.17" as="sourcePoint" />
            <mxPoint x="1210" y="879.17" as="targetPoint" />
          </mxGeometry>
        </mxCell>
        <mxCell id="h9pU4cVGm7gbYkLVTap9-28" value="" style="shape=link;html=1;rounded=0;fillColor=#d5e8d4;strokeColor=#82b366;" edge="1" parent="1">
          <mxGeometry width="100" relative="1" as="geometry">
            <mxPoint x="1110" y="932.0000000000001" as="sourcePoint" />
            <mxPoint x="1210" y="932.0000000000001" as="targetPoint" />
          </mxGeometry>
        </mxCell>
        <mxCell id="h9pU4cVGm7gbYkLVTap9-29" value="" style="endArrow=classic;html=1;rounded=0;" edge="1" parent="1">
          <mxGeometry width="50" height="50" relative="1" as="geometry">
            <mxPoint x="1120" y="880" as="sourcePoint" />
            <mxPoint x="1120" y="930" as="targetPoint" />
          </mxGeometry>
        </mxCell>
        <mxCell id="h9pU4cVGm7gbYkLVTap9-30" value="" style="endArrow=classic;html=1;rounded=0;" edge="1" parent="1">
          <mxGeometry width="50" height="50" relative="1" as="geometry">
            <mxPoint x="1200" y="880" as="sourcePoint" />
            <mxPoint x="1200" y="930" as="targetPoint" />
          </mxGeometry>
        </mxCell>
        <mxCell id="h9pU4cVGm7gbYkLVTap9-31" value="simultaniously" style="text;html=1;strokeColor=none;fillColor=none;align=center;verticalAlign=middle;whiteSpace=wrap;rounded=0;" vertex="1" parent="1">
          <mxGeometry x="1130" y="890" width="60" height="30" as="geometry" />
        </mxCell>
        <mxCell id="h9pU4cVGm7gbYkLVTap9-32" value="" style="shape=collate;whiteSpace=wrap;html=1;" vertex="1" parent="1">
          <mxGeometry x="1152.25" y="970" width="15.5" height="30" as="geometry" />
        </mxCell>
        <mxCell id="h9pU4cVGm7gbYkLVTap9-33" value="&lt;div&gt;time condition&lt;br&gt;&lt;/div&gt;" style="text;html=1;strokeColor=none;fillColor=none;align=center;verticalAlign=middle;whiteSpace=wrap;rounded=0;" vertex="1" parent="1">
          <mxGeometry x="1167.75" y="970" width="60" height="30" as="geometry" />
        </mxCell>
        <mxCell id="h9pU4cVGm7gbYkLVTap9-34" value="read book" style="rounded=1;whiteSpace=wrap;html=1;" vertex="1" parent="1">
          <mxGeometry x="367.5" y="570" width="94" height="20" as="geometry" />
        </mxCell>
        <mxCell id="h9pU4cVGm7gbYkLVTap9-35" value="" style="endArrow=classic;html=1;rounded=0;exitX=0.5;exitY=1;exitDx=0;exitDy=0;" edge="1" parent="1">
          <mxGeometry width="50" height="50" relative="1" as="geometry">
            <mxPoint x="414.33" y="590" as="sourcePoint" />
            <mxPoint x="414.33" y="620" as="targetPoint" />
            <Array as="points" />
          </mxGeometry>
        </mxCell>
      </root>
    </mxGraphModel>
  </diagram>
</mxfile>
